<svg width="480" height="44" viewBox="0 0 480 44" fill="none" xmlns="http://www.w3.org/2000/svg">
<path d="M5.47916 41.8893C8.83505 41.8734 10.9894 41.7455 11.9848 41.5178C12.9531 41.2782 13.5325 40.6231 13.7114 39.5487C13.898 38.4782 13.9447 28.6524 13.8708 10.0751L13.6531 1.68319L9.16169 1.71115C6.66908 1.97078 4.77531 2.84552 3.46096 4.3154C1.99883 6.00497 0.766131 7.65859 0.377268 11.5011H0.0778432L0.015625 0.552819L17.5728 0.544831L35.5072 0.460951L35.5577 11.5011H35.4255C34.7606 7.41894 34.4184 7.21123 33.9284 6.08486C32.6024 3.09716 30.1409 1.61928 26.54 1.63526L21.512 1.65521L21.4226 11.1336L21.4848 24.6341C21.5198 34.448 21.5781 39.6206 21.6364 40.1438C21.7103 40.675 22.523 41.0705 24.0941 41.3661C25.6495 41.6497 27.5394 41.7974 29.7131 41.7774L30.0242 42.4684L5.16807 42.5803L5.47916 41.8893ZM47.2097 42.5564L39.2885 42.4046L30.9163 42.5803V41.7335C34.3538 41.7094 36.197 41.3701 36.3915 40.703C36.4731 40.4674 36.5276 39.5447 36.5548 37.915C36.5742 36.2934 36.5781 34.0406 36.5626 31.1688L36.5353 24.5023L36.5198 20.3603L36.512 19.0542L36.5081 18.0676L36.5042 17.2488L36.5081 16.6297C36.4926 15.2796 36.4226 14.4768 36.2787 14.2132C36.0648 13.5701 34.2449 13.2545 30.7957 13.2705V12.3638L39.4285 12.5036L47.093 12.2919L47.101 13.1946C44.1767 13.2066 42.5396 13.5182 42.1818 14.1053C41.9913 14.6405 41.9057 18.6987 41.9407 26.2798L55.1815 26.2159L55.158 23.6675L55.1542 21.6584C55.1386 17.2488 55.0375 14.7284 54.8236 14.1013C54.6058 13.4662 52.9609 13.1747 49.8539 13.1786L49.8578 12.2799L57.3784 12.4317L66.2056 12.204L66.2095 13.1067C62.7914 13.1187 60.9871 13.4303 60.8004 14.0294C60.6138 14.6246 60.5282 17.9957 60.5671 24.1349L60.5751 26.9109C60.6061 35.5624 60.7306 40.1638 60.9367 40.739C61.1506 41.3022 62.9394 41.5778 66.3225 41.5618L66.3305 42.4685L57.7677 42.3247L49.9904 42.5004L49.9787 41.6297C52.9379 41.6215 54.5711 41.3261 54.8861 40.719C55.1233 40.2996 55.2245 35.9379 55.1817 27.6618L41.9448 27.7177C41.9758 35.8859 42.112 40.2117 42.3025 40.683C42.4309 41.0185 43.0997 41.2502 44.3207 41.394C44.729 41.4259 45.709 41.5058 47.21 41.6537L47.2097 42.5564ZM73.127 40.6631C73.3253 40.032 73.4148 36.8166 73.3876 31.0289L73.3683 24.3146C73.341 18.0436 73.2242 14.6006 73.0298 13.9855C72.8431 13.3744 70.9999 13.0708 67.5274 13.0828L67.5156 12.3678C69.1605 12.3558 71.5054 12.3439 74.5463 12.3319C77.5833 12.3199 79.7765 12.3039 81.1647 12.3039L94.7866 12.244L94.8488 24.043H94.0984C93.6085 19.4456 92.6557 16.4499 91.2364 15.0719C89.8287 13.6899 87.1767 12.9989 83.2841 13.0189C82.4636 13.0229 81.647 13.0268 80.8576 13.0309C79.8038 13.0988 79.1972 13.2825 79.0611 13.618C78.8317 14.1053 78.7305 18.2793 78.7578 26.144L80.531 26.1839C82.9886 26.1719 84.6918 25.6008 85.6095 24.4704C86.5234 23.352 86.9861 21.2111 86.9706 18.0876H87.6705L87.7483 35.5584H87.0445C87.0406 32.359 86.5934 30.1143 85.734 28.8241C84.8863 27.522 83.3658 26.8869 81.2387 26.8949L78.7695 26.9029C78.8043 35.4586 78.925 40.1079 79.1272 40.8628C79.2517 41.3421 81.0326 41.5778 84.4935 41.5618C88.2266 41.542 90.8087 40.8029 92.2591 39.321C93.8379 37.7193 94.9617 34.5838 95.6111 29.8866H96.315L96.3498 37.931L96.4081 42.4924L80.3169 42.3886L67.6478 42.5803V41.6377C71.1048 41.6178 72.9248 41.2942 73.127 40.6631ZM115.277 39.8922C115.554 39.0095 115.67 34.5119 115.643 26.3956L115.592 17.0091C115.569 8.22178 115.414 3.40871 115.13 2.54595C114.869 1.68319 112.291 1.26779 107.43 1.28377L107.418 0.277216C109.717 0.265235 112.991 0.249247 117.245 0.229285C121.503 0.205324 124.587 0.197352 126.512 0.193344L145.605 0.105469L145.683 16.6177L144.629 16.6257C143.941 10.183 142.611 6.00497 140.639 4.05977C138.648 2.11457 134.927 1.15995 129.483 1.17992C128.339 1.18789 127.216 1.1959 126.103 1.19987C124.618 1.29174 123.778 1.57533 123.572 2.04266C123.249 2.71369 123.113 8.55728 123.164 19.5614L125.637 19.6054C129.09 19.5974 131.45 18.7905 132.741 17.2208C134.048 15.6471 134.666 12.6554 134.655 8.28567L135.634 8.28167L135.736 32.7425L134.756 32.7506C134.736 28.2689 134.13 25.1215 132.932 23.3161C131.723 21.5027 129.63 20.608 126.617 20.6199L123.16 20.6279C123.218 32.6027 123.381 39.1093 123.673 40.1638C123.844 40.8468 126.356 41.1624 131.19 41.1504C136.404 41.1262 140.025 40.0799 142.066 38.0069C144.279 35.7701 145.838 31.3724 146.744 24.8139L147.74 24.8099L147.786 36.0657L147.872 42.4605L125.345 42.3047L107.605 42.5803L107.609 41.2502C112.427 41.2342 114.982 40.7829 115.277 39.8922ZM173.587 29.5529C173.595 33.7908 172.642 37.0821 170.686 39.4267C168.742 41.7833 166.019 42.9576 162.508 42.9856C158.499 42.9937 155.271 41.6315 152.837 38.8875C150.411 36.1354 149.178 32.4447 149.154 27.7954C149.143 22.9704 150.379 19.028 152.88 15.9525C155.372 12.8769 158.557 11.3391 162.368 11.3271C163.799 11.3151 165.055 11.5708 166.109 12.082C167.19 12.6053 168.248 13.4601 169.294 14.6703L169.706 14.6623C170.11 14.0632 170.48 13.4681 170.822 12.8689C171.149 12.2578 171.44 11.5948 171.705 10.8718L172.366 10.8758L172.42 25.1472L171.627 25.1552C170.666 16.4477 167.626 12.106 162.547 12.134C160.019 12.1499 158.087 13.4081 156.776 15.9365C155.47 18.4648 154.824 22.1955 154.855 27.1404C154.882 37.122 157.674 42.1028 163.204 42.0868C166.101 42.067 168.415 40.9525 170.184 38.7596C171.942 36.5548 172.813 33.5791 172.797 29.8285V29.5569L173.587 29.5529ZM182.853 15.7768C181.539 18.2252 180.897 21.8041 180.901 26.5133C180.929 31.4622 181.613 35.2967 182.997 38.0367C184.362 40.7688 186.237 42.1348 188.558 42.1268C193.637 42.0988 196.16 37.4416 196.133 28.1549C196.11 22.9704 195.437 18.9841 194.123 16.2201C192.824 13.4641 190.996 12.0821 188.647 12.0941C186.108 12.098 184.176 13.3323 182.853 15.7768ZM183.18 41.8113C181.508 41.0284 180.026 39.922 178.77 38.5C177.503 37.0861 176.519 35.4165 175.799 33.4793C175.092 31.554 174.734 29.5689 174.726 27.5318C174.722 25.1912 175.119 22.9664 175.932 20.8654C176.737 18.7644 177.88 16.9311 179.369 15.3693C181.955 12.6572 185.082 11.2872 188.745 11.2792C191.653 11.2632 194.329 12.2658 196.732 14.3029C198.493 15.7887 199.854 17.654 200.862 19.9028C201.845 22.1516 202.339 24.5441 202.343 27.0965C202.378 31.4981 201.006 35.2447 198.252 38.3243C195.503 41.4119 192.174 42.9616 188.297 42.9856C186.571 42.9856 184.875 42.6021 183.18 41.8113ZM199.212 41.7755C201.604 41.3961 203.178 40.6931 203.929 39.6705C204.602 38.7758 204.94 37.1222 204.928 34.7496L204.913 33.2518L204.489 15.9966C203.929 14.7702 203.249 13.9594 202.424 13.572C201.6 13.1885 200.328 12.9928 198.605 13.0048L198.597 12.2738L203.373 12.3497L208.113 12.3337L223.951 33.4713L223.893 20.9893C223.885 17.9616 223.504 15.9086 222.785 14.8262C221.891 13.544 220.114 12.9089 217.454 12.9169V12.1899L223.761 12.2618L230.03 12.2299L230.033 12.861C227.576 12.873 226.009 13.5201 225.305 14.8142C224.815 15.7169 224.585 17.69 224.593 20.7177L224.632 31.0748C224.644 32.5686 224.698 34.6656 224.796 37.3338C224.893 40.0019 224.951 41.9352 224.955 43.1055H224.072C223.228 41.5796 222.353 40.1856 221.506 38.9315C221.004 38.1606 219.736 36.4111 217.695 33.699L205.239 16.991L205.613 33.4713C205.644 36.5948 206.079 38.7277 206.935 39.8941C207.81 41.0684 209.564 41.6316 212.181 41.6236L212.189 42.4344L206.667 42.3705C205.815 42.3745 204.505 42.4184 202.72 42.5023C200.931 42.5822 199.764 42.6182 199.212 42.6222L199.212 41.7755ZM235.069 15.7729C233.758 18.2333 233.109 21.8042 233.124 26.5094C233.156 31.4583 233.832 35.3048 235.209 38.0328C236.578 40.7769 238.425 42.1389 240.773 42.1309C245.864 42.099 248.387 37.4457 248.341 28.1471C248.317 22.9625 247.649 18.9922 246.342 16.2242C245.028 13.4522 243.212 12.0782 240.863 12.0942C238.327 12.0982 236.383 13.3364 235.069 15.7729ZM235.395 41.8154C233.716 41.0245 232.246 39.9221 230.978 38.5002C229.714 37.0742 228.738 35.4126 228.019 33.4794C227.311 31.5502 226.953 29.569 226.945 27.528C226.937 25.1953 227.334 22.9665 228.143 20.8655C228.952 18.7686 230.091 16.9272 231.581 15.3615C234.174 12.6574 237.289 11.2913 240.944 11.2753C243.873 11.2674 246.532 12.2739 248.936 14.303C250.705 15.7849 252.085 17.6542 253.058 19.8989C254.057 22.1517 254.543 24.5403 254.559 27.0926C254.586 31.5022 253.205 35.2409 250.46 38.3284C247.722 41.412 244.398 42.9697 240.521 42.9857C238.794 42.9897 237.079 42.6063 235.395 41.8154ZM258.234 13.9528L258.677 33.1172C258.696 36.5163 259.039 38.7731 259.719 39.8755C260.536 41.1936 262.251 41.8526 264.856 41.8447L264.848 42.5157L261.092 42.4877C260.092 42.4837 258.642 42.5436 256.736 42.6435C254.847 42.7393 253.439 42.7833 252.537 42.7912L252.541 42.0723C254.539 42.0683 255.955 41.6608 256.76 40.866C257.569 40.0712 257.965 38.7371 257.95 36.8837L257.954 36.696L257.569 19.4408C257.561 17.0402 257.219 15.3946 256.55 14.5238C255.873 13.6411 254.497 13.1977 252.412 13.2137V12.4468L256.993 12.4708L263.868 12.4389L270.604 33.9759H270.95L277.323 12.3749C277.689 12.3749 278.225 12.3749 278.925 12.367C279.633 12.367 280.123 12.363 280.415 12.363L284.327 12.343L289.148 12.3191V13.1339C285.816 13.1538 284.082 13.3935 283.934 13.8608C283.798 14.3242 283.728 15.7621 283.735 18.1547L283.743 19.2411L283.817 35.3579C283.806 36.3804 283.829 37.4789 283.833 38.6651C283.833 39.8594 283.887 40.5864 283.996 40.85C284.245 41.4571 285.995 41.7527 289.269 41.7287V42.4517L281.072 42.3958L272.661 42.4315V41.8004C275.542 41.7845 277.245 41.6926 277.72 41.5049C278.194 41.3291 278.439 40.6421 278.432 39.4318L278.342 14.0364L277.642 14.0444L273.439 28.208C271.44 34.9305 270.141 39.7196 269.55 42.5834L268.014 42.5955L258.996 13.9487L258.234 13.9528ZM295.879 40.7072C296 40.3397 296.081 38.8019 296.128 36.0818C296.183 33.3737 296.194 29.5073 296.171 24.4905C296.132 18.2994 296.019 14.8644 295.794 14.1774C295.568 13.4863 293.752 13.1508 290.334 13.1708L290.326 12.352C291.959 12.344 294.016 12.356 296.49 12.3959C298.955 12.4279 300.199 12.4518 300.242 12.4478C300.526 12.4478 301.572 12.4159 303.345 12.368C305.134 12.312 306.468 12.2801 307.339 12.2801V13.0949C303.89 13.1109 302.062 13.4504 301.844 14.1254C301.619 14.8124 301.529 19.0783 301.568 26.947C301.607 35.4707 301.743 40.0521 301.984 40.6992C302.225 41.3462 304.045 41.6498 307.471 41.6418V42.5405L298.959 42.3967L290.454 42.5805L290.446 41.7097C293.884 41.7015 295.689 41.3702 295.879 40.7072ZM328.179 39.4268C326.22 41.7794 323.501 42.9617 319.998 42.9857C315.985 42.9977 312.773 41.6396 310.331 38.8876C307.892 36.1395 306.667 32.4368 306.644 27.7995C306.629 22.9625 307.865 19.0281 310.362 15.9486C312.858 12.881 316.027 11.3392 319.862 11.3272C321.297 11.3193 322.541 11.5709 323.614 12.0821C324.691 12.5974 325.737 13.4562 326.795 14.6664H327.203C327.604 14.0673 327.969 13.4602 328.312 12.857C328.634 12.2539 328.945 11.5988 329.194 10.8719L329.848 10.8799L329.914 25.1473L329.124 25.1553C328.156 16.4477 325.127 12.11 320.041 12.1299C317.486 12.1459 315.58 13.4081 314.27 15.9285C312.959 18.4648 312.314 22.1914 312.341 27.1363C312.376 37.118 315.18 42.1028 320.678 42.0788C323.591 42.0706 325.905 40.9604 327.67 38.7596C329.42 36.5508 330.299 33.583 330.287 29.8284V29.5608L331.069 29.5529C331.092 33.7948 330.135 37.0782 328.179 39.4268ZM346.634 41.8815C350.002 41.8694 352.168 41.7377 353.156 41.514C354.124 41.2744 354.719 40.6273 354.886 39.5448C355.077 38.4704 355.123 28.6485 355.042 10.0753L354.82 1.69133L350.34 1.70331C347.848 1.96693 345.95 2.83767 344.64 4.31555C343.181 6.00112 342.151 6.58029 341.556 11.7528H341.253L341.194 0.552963L358.744 0.529002L376.663 0.453111L376.721 11.7528H376.604C376.099 7.46287 375.589 7.19925 375.092 6.07287C373.769 3.08917 371.312 1.6113 367.707 1.63127L362.675 1.65122L362.593 11.1296L362.656 24.6341C362.695 34.452 362.749 39.6126 362.815 40.1358C362.885 40.6671 363.69 41.0705 365.257 41.3541C366.836 41.6457 368.71 41.7894 370.884 41.7695L371.195 42.4645L346.351 42.5803L346.634 41.8815ZM377.841 40.707C377.958 40.3555 378.039 38.8097 378.082 36.0936C378.129 33.3736 378.152 29.5031 378.125 24.4983C378.094 18.3152 377.973 14.8762 377.751 14.1852C377.522 13.4982 375.706 13.1707 372.28 13.1786V12.3598C373.917 12.3598 375.978 12.3718 378.451 12.4038C380.917 12.4437 382.157 12.4557 382.188 12.4517C382.48 12.4557 383.518 12.4277 385.295 12.3718C387.092 12.3199 388.414 12.2839 389.301 12.2839L389.293 13.0988C385.851 13.1227 384.02 13.4622 383.806 14.1333C383.569 14.8123 383.495 19.0941 383.526 26.9548C383.565 35.4785 383.697 40.0599 383.938 40.707C384.16 41.3461 386.003 41.6616 389.421 41.6497L389.433 42.5524L380.905 42.4086L372.412 42.5803L372.408 41.7215C375.826 41.7056 377.631 41.3701 377.841 40.707ZM396.232 13.9108L396.66 33.0752C396.679 36.4783 397.017 38.7351 397.694 39.8455C398.514 41.1596 400.237 41.8146 402.835 41.8026V42.4817L399.055 42.4459C398.071 42.4541 396.625 42.5058 394.731 42.6057C392.825 42.7095 391.425 42.7495 390.512 42.7574V42.0345C392.538 42.0263 393.941 41.6271 394.731 40.8282C395.536 40.0294 395.94 38.7073 395.932 36.8459L395.921 36.6582L395.555 19.3991C395.547 17.0103 395.197 15.3567 394.528 14.482C393.852 13.5993 392.479 13.1639 390.395 13.1719L390.403 12.409L394.98 12.4289L401.839 12.397L408.578 33.95L408.94 33.9418L415.294 12.3369C415.671 12.3369 416.204 12.3289 416.908 12.3329C417.612 12.3289 418.121 12.3249 418.405 12.3249L422.301 12.305L427.127 12.289L427.119 13.0958C423.802 13.1118 422.052 13.3514 421.92 13.8228C421.768 14.2821 421.706 15.72 421.714 18.1286L421.73 19.207L421.785 35.3198C421.793 36.3344 421.798 37.4408 421.806 38.639C421.806 39.8173 421.876 40.5403 421.996 40.8159C422.23 41.415 423.972 41.7106 427.262 41.6906V42.4176L419.064 42.3577L410.642 42.3857L410.65 41.7666C413.527 41.7545 415.219 41.6548 415.705 41.475C416.191 41.2913 416.416 40.6003 416.409 39.394L416.308 14.0106H415.624L411.417 28.1663C409.426 34.9006 408.131 39.6937 407.532 42.5456L405.996 42.5538L396.971 13.907L396.232 13.9108ZM433.81 40.6631C434.004 40.036 434.097 36.8206 434.074 31.0209L434.045 24.3186C434.028 18.0476 433.912 14.5926 433.718 13.9855C433.52 13.3664 431.692 13.0748 428.208 13.0868V12.3638C429.849 12.3478 432.186 12.3398 435.223 12.3238C438.268 12.3159 440.469 12.3039 441.841 12.2919L455.487 12.24L455.524 24.035H454.774C454.288 19.4456 453.339 16.4419 451.927 15.0639C450.52 13.6779 447.86 12.9949 443.964 13.0149C443.139 13.0189 442.338 13.0189 441.537 13.0228C440.491 13.0907 439.884 13.2865 439.748 13.622C439.519 14.1013 439.414 18.2793 439.445 26.136L441.206 26.1759C443.68 26.1679 445.367 25.5928 446.289 24.4704C447.214 23.344 447.662 21.2031 447.658 18.0916L448.35 18.0836L448.432 35.5584H447.724C447.707 32.355 447.281 30.1143 446.417 28.8161C445.57 27.526 444.057 26.8829 441.918 26.8909L439.453 26.9029C439.482 35.4546 439.608 40.0999 439.814 40.8508C439.927 41.3421 441.72 41.5698 445.185 41.5538C448.902 41.5379 451.492 40.7869 452.954 39.309C454.533 37.7193 455.641 34.5718 456.283 29.8866L456.998 29.8826L457.032 37.931L457.094 42.5004L441.003 42.3806L428.338 42.5803L428.321 41.6297C431.778 41.6215 433.619 41.2942 433.81 40.6631ZM458.547 42.9856L458.488 29.3452L459.146 29.3412C460.184 33.5392 461.704 36.7306 463.715 38.9394C465.725 41.1242 468.078 42.2267 470.769 42.2147C472.612 42.2107 474.082 41.6675 475.182 40.593C476.263 39.5186 476.788 38.1006 476.784 36.3631C476.776 34.1023 475.933 32.4288 474.237 31.3543C473.11 30.6393 470.85 29.8565 467.444 29.0177C464.041 28.1749 461.576 27.0924 460.048 25.7743C458.313 24.2805 457.45 22.1955 457.435 19.5513C457.438 17.1148 458.243 15.1057 459.892 13.512C461.529 11.9263 463.649 11.1274 466.231 11.1154C469.24 11.1075 471.908 12.4575 474.245 15.1816C474.891 14.7183 475.392 14.191 475.777 13.5719C476.151 12.9528 476.454 12.114 476.687 11.0715L477.131 11.0675L477.173 22.7187L476.571 22.7307C475.898 19.3276 474.646 16.6674 472.783 14.7782C470.92 12.8569 468.684 11.9143 466.13 11.9303C464.228 11.9382 462.719 12.4256 461.615 13.3882C460.514 14.3548 459.958 15.6569 459.962 17.2786C459.975 19.1359 460.826 20.5379 462.525 21.4565C463.812 22.1715 466.203 22.8825 469.684 23.5695C473.156 24.2565 475.7 25.307 477.271 26.713C479.013 28.2428 479.88 30.4436 479.895 33.3315C479.904 36.1234 479.036 38.4201 477.274 40.2255C475.513 42.015 473.261 42.9137 470.504 42.9376C467.347 42.9458 464.547 41.3719 462.124 38.2004C460.689 39.0752 459.636 40.6729 458.978 42.9856H458.547Z" fill="black"/>
</svg>
