<svg width="264" height="54" viewBox="0 0 264 54" fill="none" xmlns="http://www.w3.org/2000/svg">
<path d="M0.921875 27.14V53.6055H6.17175H11.4216V42.189V30.7725H19.2964H27.1712V25.8427V20.9129H19.2964H11.4216V15.7236V10.5343H19.5589H27.6962V5.60444V0.674609H14.3091H0.921875V27.14Z" fill="black"/>
<path d="M31.8984 27.14V53.6055H37.4108H42.9232V27.14V0.674609H37.4108H31.8984V27.14Z" fill="black"/>
<path d="M47.1172 27.14V53.6055H59.9794H72.8416V48.9351V44.2647H65.4918H58.1419V22.4697V0.674609H52.6296H47.1172V27.14Z" fill="black"/>
<path d="M76.5137 27.14V53.6055H81.7635H87.0134L87.1184 40.2171L87.2759 26.7768L93.0508 32.9002C96.2532 36.2213 99.0881 38.9716 99.3506 38.9716C99.6656 38.9716 102.501 36.2213 105.65 32.9002L111.425 26.8806L111.583 40.2171L111.688 53.6055H116.938H122.188L122.293 27.14C122.398 7.26502 122.293 0.674609 121.82 0.674609C121.505 0.674609 121.138 0.882181 121.033 1.14165C120.98 1.40111 116.045 6.6423 110.113 12.7657L99.4031 23.9746L92.5258 16.8652C88.7459 12.9733 83.811 7.73206 81.5011 5.29309C79.1911 2.80222 77.1437 0.778395 76.9337 0.726502C76.6712 0.726502 76.5137 12.5581 76.5137 27.14Z" fill="black"/>
<path d="M126.395 27.14V53.6055H131.907H137.419V42.189V30.7725H145.032H152.644V25.8427V20.9129H145.032H137.419V15.5679V10.2748L145.557 10.4305L153.694 10.5862V5.60444V0.674609H140.044H126.395V27.14Z" fill="black"/>
<path d="M158.26 26.5173C151.645 40.6841 146.133 52.6195 145.975 52.9309C145.765 53.4498 147.025 53.6055 151.277 53.6055H156.842L158.89 49.1946L160.99 44.7837H170.755H180.519L182.567 49.1946L184.614 53.6055H190.127H195.639L194.694 51.3741C194.169 50.1805 188.709 38.5046 182.619 25.3757C176.529 12.2986 171.542 1.40111 171.542 1.14165C171.542 -1.34922 168.497 4.4628 158.26 26.5173ZM175.742 34.7164C175.742 34.8202 173.484 34.924 170.755 34.924C168.025 34.924 165.767 34.8202 165.767 34.6645C165.767 34.5088 166.87 32.018 168.235 29.1639L170.702 23.8708L173.222 29.2158C174.587 32.1218 175.742 34.6126 175.742 34.7164Z" fill="black"/>
<path d="M197.266 27.0881V53.6055H202.778H208.29V43.1231V32.6407L214.485 43.1231L220.628 53.6055H227.347H234.067L232.23 50.8032C231.232 49.2465 227.925 44.3166 224.88 39.8019L219.368 31.6547L221.888 30.5131C226.822 28.2298 230.025 22.7291 230.025 16.502C230.025 10.2229 227.19 5.39687 221.888 2.49086L219.053 0.934067L208.185 0.778388L197.266 0.622709V27.0881ZM214.958 10.4824C217.53 11.6759 218.948 13.9592 219 17.0209C219.053 21.5356 215.903 24.5454 211.125 24.5454H208.29V17.0209V9.49641H210.548C211.755 9.49641 213.75 9.96345 214.958 10.4824Z" fill="black"/>
<path d="M235.592 27.14V53.6055H249.504H263.416V48.9351V44.2647H255.016H246.617V37.5186V30.7725H254.754H262.891V25.8427V20.9129H254.754H246.617V15.5679V10.2748L255.016 10.4305L263.416 10.5862V5.60444V0.674609H249.504H235.592V27.14Z" fill="black"/>
</svg>
