<svg width="116" height="71" viewBox="0 0 116 71" fill="none" xmlns="http://www.w3.org/2000/svg">
<path d="M58.0903 51.9168C71.4403 51.9168 82.2626 40.8731 82.2626 27.25C82.2626 13.6269 71.4403 2.58325 58.0903 2.58325C44.7403 2.58325 33.918 13.6269 33.918 27.25C33.918 40.8731 44.7403 51.9168 58.0903 51.9168Z" fill="white"/>
<path d="M70.9442 32.5239L66.9888 34.7214V34.7763C68.1425 35.2708 69.3511 35.5455 70.6146 35.4905C71.5485 35.5455 72.4825 35.3807 73.3615 35.1609V18.8446L72.2627 18.7896L70.8893 20.1081V32.5239H70.9442ZM40.0147 24.4482V24.1186C40.0147 21.1519 40.0696 20.8773 43.256 16.5922L43.201 16.5372L40.619 17.9656H38.6962C37.7073 17.9656 37.3228 18.0205 36.9382 18.46C36.6635 18.7896 36.6086 19.1742 36.6635 19.5588H36.2789C35.9493 19.0643 35.7845 18.515 35.7845 17.9106C35.7296 17.0317 36.0592 16.2076 36.6635 15.6033C37.4326 14.8891 38.4764 14.5595 39.4653 14.7243L42.2671 14.944L44.2448 14.7243L44.5195 14.8891V30.6561C44.5195 32.5239 44.4646 33.1282 40.3992 37.0288L40.4542 37.1936L44.08 36.0948H46.3324V14.6144H47.4312V24.5031H51.4416V17.3613L56.5507 14.5595L56.8254 14.7243L56.276 19.0094V34.7763L58.7482 36.5893V36.8639L55.0125 39.3361H54.7378L51.5515 36.3146V27.6895H47.4861V37.4133L44.4646 39.446H37.3777L37.2129 39.1713C39.9597 35.7652 40.1795 34.7763 40.1795 32.7986V27.6345H35.6197L35.5648 27.3598L37.5974 24.558H40.0147V24.4482ZM63.0882 27.8543C63.0333 29.9968 63.8024 32.0844 65.2857 33.6227C65.5055 33.8973 65.7802 34.1171 66.0548 34.2819H66.1098L66.9888 33.1832V20.7674L70.7245 18.7347V18.6798C69.3511 18.46 67.9227 18.2952 66.5493 18.2403C63.8024 18.2403 62.7037 18.7347 61.9346 19.5588C61.4401 20.1081 61.1105 20.7674 61.0556 21.5365H60.5062C60.2315 20.8223 60.0667 20.1081 60.0667 19.339C60.0118 18.1304 60.5062 16.9767 61.3303 16.0977C62.429 14.999 64.132 14.3397 66.8789 14.3397C68.9116 14.3397 72.2078 14.999 75.0096 14.999C76.9324 14.999 77.5367 14.7243 78.4157 13.4608L78.7453 13.5157C78.0861 17.7458 76.4929 18.8995 74.3503 18.8995H74.1306V34.7763C75.8336 34.172 77.262 32.9085 78.0861 31.3153L78.4157 31.3702C78.3607 33.293 77.5367 35.1609 76.1633 36.5343C74.1855 38.4022 71.5486 39.3911 68.8566 39.2812C63.7475 39.5559 59.3525 35.6553 59.0778 30.5462C59.0778 30.2715 59.0778 29.9968 59.0778 29.7221C59.0778 27.4697 59.9568 25.2722 61.55 23.6241C62.5938 22.5803 63.8574 21.7562 65.2308 21.2618L65.4505 21.5365C63.9123 23.2945 63.0333 25.5469 62.9784 27.9092M84.6236 27.0302C84.7334 20.0532 81.9866 13.3509 77.0972 8.3516C66.3845 -1.97657 49.4089 -1.97657 38.6962 8.3516C28.6976 18.7896 28.6976 35.2708 38.6962 45.7088C49.4089 56.037 66.3845 56.037 77.0972 45.7088C81.9866 40.7095 84.6785 34.0072 84.6236 27.0302Z" fill="black"/>
<path d="M5.1481 70.0535L4.89876 70.2494C4.50695 69.9823 4.04389 69.8398 3.56303 69.8576C3.02873 69.8576 2.49444 69.9823 2.01357 70.2138V70.196C2.54787 69.8398 3.18902 69.6617 3.83017 69.6795C4.29323 69.6439 4.7741 69.7864 5.1481 70.0535ZM108.677 69.822C108.694 69.7151 108.73 69.6261 108.801 69.5548C108.962 69.5014 109.14 69.4658 109.318 69.4836C110.066 69.448 110.796 69.6973 111.366 70.196L111.134 70.3385C110.618 69.8398 109.799 69.7151 109.247 69.7151C109.033 69.7151 108.855 69.7508 108.677 69.822ZM43.4749 69.822C43.4927 69.7151 43.5283 69.6261 43.5995 69.5548C43.7776 69.5014 43.9557 69.4836 44.1338 69.4836C44.8462 69.4658 45.523 69.7151 46.0573 70.196L45.8258 70.3385C45.3271 69.9289 44.7037 69.6973 44.0626 69.7151C43.8489 69.6973 43.653 69.7329 43.4749 69.822ZM18.3986 68.8246C18.8261 69.3055 19.3247 69.7151 19.8768 70.0713L19.5741 70.3029C19.0398 69.9467 18.5589 69.537 18.1315 69.0562L18.3986 68.8246ZM89.9763 68.8246C90.4038 69.3055 90.9024 69.7151 91.4546 70.0713L91.1518 70.3029C90.6175 69.9467 90.1366 69.537 89.7092 69.0562L89.9763 68.8246ZM63.9384 68.8246C64.3658 69.3055 64.8645 69.7151 65.4166 70.0713L65.1138 70.3029C64.5795 69.9467 64.0987 69.537 63.6712 69.0562L63.9384 68.8246ZM85.5061 68.7356C85.9691 69.2699 86.5034 69.7151 87.1089 70.0713L86.8062 70.3029C86.2185 69.9467 85.6842 69.4836 85.2389 68.9671L85.5061 68.7356ZM13.9105 68.7356C14.3736 69.2699 14.9079 69.7151 15.5134 70.0713L15.2285 70.3029C14.6407 69.9467 14.1064 69.4836 13.6612 68.9671L13.9105 68.7356ZM51.0084 68.5397C51.6318 69.163 52.3442 69.6973 53.11 70.1248L52.8072 70.3385C52.0592 69.8932 51.3468 69.3589 50.7413 68.7356L51.0084 68.5397ZM57.135 70.2672C56.5829 69.9467 56.102 69.5192 55.728 69.0027V67.5245C55.728 67.0793 55.7102 66.634 55.6746 66.2066L55.9952 66.0819C56.013 66.4381 56.0308 66.9012 56.0308 67.3642V68.8781C56.4226 69.3589 56.9035 69.7508 57.4378 70.0357L57.135 70.2672ZM112.702 69.0384V66.4559L111.811 66.0641L111.989 65.8682L113.004 66.2956V69.2877L112.951 69.3055L112.702 69.0384ZM47.393 69.0384V66.4559L46.5025 66.0641L46.6806 65.8682L47.678 66.2956V69.2877L47.6424 69.3055L47.393 69.0384ZM57.9186 66.5806C57.9008 66.1532 57.9364 65.7079 58.0255 65.2983C58.4529 65.423 58.916 65.4942 59.3612 65.5298V68.6822C59.1119 68.789 58.8626 68.8781 58.6488 68.9849C58.3817 68.8246 58.1502 68.6465 57.9364 68.4328L57.9186 66.5806ZM6.84004 63.8201H8.99502V64.0694H6.84004V63.8201ZM1.10527 64.1585L1.39023 63.8201H3.06435V64.0694H2.35196C1.94233 64.0694 1.5327 64.105 1.10527 64.1585ZM28.8174 70.0891L28.4968 70.2851C27.9091 69.9289 27.3748 69.448 26.9651 68.8959V64.5859C26.9651 63.5707 26.9473 63.1255 26.9117 62.7693L27.2501 62.6268V68.7712C27.6597 69.3233 28.194 69.7686 28.8174 70.0891ZM55.9061 63.7667C56.4226 63.4105 56.9213 63.0186 57.42 62.609C58.0077 63.0186 58.6845 63.2858 59.379 63.4283V65.2092C57.8296 65.0846 56.7254 64.5859 55.9061 63.7667ZM104.438 62.609L104.474 62.5912C104.883 63.4461 105.364 64.2653 105.916 65.0312L104.42 65.8504L104.438 62.609ZM111.152 66.5806L110.956 66.7943L108.962 65.8682V63.6242C108.962 63.2858 108.944 62.9296 108.908 62.5912L109.264 62.4843V65.7079L111.152 66.5806ZM45.8436 66.5806L45.6477 66.7943L43.6708 65.8682V63.642C43.6708 63.3036 43.653 62.9474 43.6173 62.609L43.9735 62.5022V65.7257L45.8436 66.5806ZM83.3155 68.8068C82.3003 69.8754 80.8933 70.4631 79.4329 70.4453C77.7232 70.4453 76.3696 69.8932 75.3723 68.9137C74.4462 67.9876 73.9475 66.7409 73.9653 65.4408C73.9653 64.301 74.4462 63.2145 75.2832 62.4487L75.301 62.4665C74.6064 63.2502 74.2324 64.2653 74.2681 65.3161C74.2681 66.5984 74.7667 67.8273 75.675 68.7356C76.6011 69.6617 77.9013 70.1782 79.5576 70.1782C80.9111 70.2138 82.2647 69.7151 83.3155 68.8068ZM50.9906 62.5556H50.4563L50.6166 62.2884H50.9906V62.5556ZM55.1225 62.2884L54.8732 62.609C54.4101 62.5556 53.9292 62.52 53.4662 62.5556V62.2884H55.0869H55.1225ZM104.634 70.3207C103.761 69.5727 102.942 68.7356 102.212 67.8273V64.0338C102.212 63.2858 102.176 62.6268 102.14 62.3597L102.461 62.2884C102.514 62.7693 102.532 63.268 102.514 63.7667V67.7204C103.245 68.5931 104.046 69.4124 104.919 70.1604L104.634 70.3207ZM61.0532 70.0891L60.7504 70.2851C60.2873 69.8932 59.8777 69.448 59.5571 68.9315V63.3036C58.8447 63.1611 58.1502 62.8762 57.5446 62.4665L57.7583 62.2528C58.3995 62.6803 59.0941 62.9652 59.8421 63.1255V68.8246C60.1805 69.2877 60.5901 69.7151 61.0532 70.0891ZM24.169 70.0891L23.8662 70.2851C23.4032 69.9645 22.9757 69.5727 22.6017 69.1452V62.9652C22.4058 62.6803 22.1743 62.4487 21.8893 62.2528L22.1565 62.1281C22.4414 62.3241 22.7086 62.5912 22.9045 62.8762V69.0206C23.2963 69.4302 23.7238 69.7864 24.169 70.0891ZM69.6909 70.0713L69.3882 70.2672C68.9251 69.9467 68.4977 69.5548 68.1237 69.1274V62.9652C67.9278 62.6803 67.6962 62.4487 67.4113 62.2528L67.6784 62.1281C67.9812 62.3241 68.2305 62.5912 68.4264 62.8762V69.0206C68.8183 69.4302 69.2457 69.7686 69.6909 70.0713ZM95.7645 70.0713L95.4618 70.2672C94.9987 69.9467 94.5713 69.5548 94.1973 69.1274V62.9652C94.0014 62.6803 93.7698 62.4487 93.4849 62.2528L93.752 62.1281C94.037 62.3241 94.3041 62.5912 94.5 62.8762V69.0206C94.8918 69.4302 95.3015 69.7686 95.7645 70.0713ZM99.8252 70.0713L99.5224 70.2672C99.0593 69.9467 98.6319 69.5548 98.2579 69.1274V62.9652C98.062 62.6803 97.7949 62.4309 97.5099 62.2528L97.777 62.1281C98.0798 62.3419 98.3291 62.5912 98.5429 62.894V69.0384C98.9347 69.4302 99.3621 69.7864 99.8252 70.0713ZM64.0808 68.5575V62.9296C63.9027 62.6624 63.689 62.4309 63.4575 62.235L63.7068 62.0925C63.9562 62.3062 64.1877 62.5378 64.3836 62.8049V68.326L64.1165 68.5397L64.0808 68.5575ZM85.6485 68.4506V62.9296C85.4704 62.6803 85.2567 62.4487 85.0252 62.235L85.2745 62.0925C85.5239 62.3062 85.7554 62.5378 85.9513 62.8049V68.2369L85.6842 68.4506H85.6485ZM35.781 68.7712C36.1906 69.3233 36.7071 69.7508 37.3127 70.0535L37.0099 70.2494C36.4044 69.911 35.8701 69.4302 35.4782 68.8603V62.6981C35.2823 62.52 35.0508 62.3597 34.8015 62.235L35.0508 62.0925C35.3001 62.235 35.5495 62.4131 35.7632 62.609L35.781 68.7712ZM90.1366 68.5575V62.9296C89.9585 62.6624 89.7448 62.4309 89.5133 62.235L89.7626 62.0925C90.012 62.3062 90.2435 62.5378 90.4394 62.8049V68.326L90.1722 68.5397L90.1366 68.5575ZM14.0708 68.4506V62.9296C13.8927 62.6803 13.679 62.4487 13.4475 62.235L13.6968 62.0925C13.9462 62.3062 14.1777 62.5378 14.3736 62.8049V68.2369L14.1064 68.4506H14.0708ZM18.5589 68.5575V62.9296C18.3808 62.6624 18.1671 62.4309 17.9356 62.235L18.1849 62.0925C18.4342 62.3062 18.6658 62.5378 18.8617 62.8049V68.326L18.5945 68.5397L18.5589 68.5575ZM39.5389 62.4665C39.3964 62.3597 39.2539 62.2528 39.1114 62.1638L39.3608 62.0213C39.5389 62.1103 39.6814 62.235 39.8238 62.3775V68.789C40.1444 69.2877 40.554 69.7151 41.0171 70.0713L40.7143 70.2672C40.2157 69.8932 39.806 69.4124 39.5211 68.8781L39.5389 62.4665ZM29.2448 64.016C29.2448 62.7337 29.2982 62.2528 29.4407 61.7898C29.8147 62.0035 30.2422 62.2528 30.7764 62.5734V68.6644C30.5093 68.7712 30.2243 68.8781 29.975 68.9849C29.7079 68.8246 29.4763 68.6287 29.2626 68.3972L29.2448 64.016ZM114.091 62.8762L113.877 63.1433C113.752 63.1789 113.628 63.2145 113.485 63.1967C112.541 63.1967 111.651 62.7693 111.045 62.0569V61.7541H111.081C111.687 62.5022 112.613 62.9296 113.574 62.9474C113.752 62.9474 113.913 62.9118 114.091 62.8405V62.8762ZM48.7822 62.8762L48.5863 63.1433C48.4616 63.1789 48.3369 63.2145 48.1945 63.1967C47.2505 63.1967 46.3601 62.7693 45.7723 62.0569V61.7541H45.8079C46.4135 62.5022 47.3218 62.9296 48.2835 62.9474C48.4616 62.9474 48.6219 62.9118 48.8 62.8405L48.7822 62.8762ZM106.094 64.9421C105.453 64.0516 104.901 63.1255 104.438 62.1281V61.6651L104.474 61.6473C104.972 62.7693 105.596 63.8379 106.344 64.8174L106.094 64.9421ZM93.378 69.1274L93.2533 68.9315C93.1109 68.9849 92.9506 69.0562 92.8081 69.1096C92.6656 69.0384 92.5409 68.9493 92.4163 68.8425V62.7515C92.6656 62.609 92.9684 62.4843 93.2533 62.3597C93.5383 62.5378 93.7876 62.7693 93.9657 63.0543V69.2699C94.3754 69.7686 94.874 70.196 95.4083 70.57H95.4618C96.1385 70.0535 96.8687 69.5727 97.5989 69.1274L97.4743 68.9315L97.0468 69.1096C96.8153 68.9849 96.6016 68.8068 96.4235 68.6109V62.7515C96.6728 62.609 96.9756 62.4843 97.2606 62.3597C97.5455 62.5378 97.777 62.7693 97.9729 63.0543V69.2699C98.3826 69.7686 98.8813 70.196 99.4155 70.5522H99.469C100.253 69.9645 100.858 69.537 101.766 68.9671L101.642 68.7712C101.446 68.8603 101.25 68.9493 101.054 69.0384C100.823 68.9315 100.627 68.789 100.466 68.6109V62.4487C100.11 61.7898 99.5758 61.2377 98.9169 60.8815H98.8813C97.973 61.2555 97.1359 61.772 96.3879 62.3953C96.0495 61.7541 95.5152 61.2198 94.874 60.8815H94.8384C93.9479 61.2377 93.1109 61.7541 92.3807 62.3775C92.0245 61.7898 91.5436 61.2911 90.9915 60.8815H90.9559C90.0654 61.3445 89.2283 61.9144 88.4803 62.5734L88.6228 62.7515C88.8187 62.609 89.0502 62.4843 89.2639 62.3597C89.4955 62.5556 89.6914 62.7693 89.8873 63.0008V68.6644C89.7092 68.8068 89.5489 68.9137 89.3886 69.0384V69.074C89.8873 69.6439 90.4572 70.1248 91.0805 70.5522H91.1162C91.8642 70.0179 92.6122 69.5548 93.378 69.1274ZM17.6506 68.9493L17.5259 68.7534C17.2766 68.8603 17.0629 68.9493 16.8492 69.0562C16.6711 68.9493 16.493 68.8425 16.3327 68.7V62.3597C15.9765 61.772 15.5134 61.2555 14.9435 60.8458H14.9257C14.0352 61.3089 13.1981 61.8788 12.4501 62.5378L12.5926 62.7159C12.8063 62.5734 13.02 62.4487 13.2338 62.3241C13.4653 62.52 13.6612 62.7337 13.8393 62.983V68.5219C13.679 68.6644 13.5187 68.789 13.3406 68.9137V68.9493C13.8571 69.5727 14.4805 70.107 15.175 70.5344H15.2285C16.0655 69.9467 16.6889 69.537 17.6506 68.9493ZM67.5003 69.0206L67.3757 68.8246C67.1441 68.9315 66.9482 69.0027 66.7345 69.0918C66.592 69.0206 66.4674 68.9315 66.3605 68.8246V62.7337C66.6098 62.5912 66.9126 62.4665 67.1976 62.3419C67.4825 62.52 67.7319 62.7515 67.91 63.0365V69.2521C68.3196 69.7508 68.8182 70.1782 69.3525 70.5344H69.406C70.1362 69.9645 70.902 69.4302 71.7034 68.9671L71.5788 68.7712C71.3829 68.8603 71.187 68.9493 70.9911 69.0206C70.7595 68.9137 70.5636 68.7712 70.4033 68.5931V62.4309C70.0471 61.7719 69.5128 61.2198 68.8539 60.8458H68.8182C67.9278 61.202 67.0907 61.7185 66.3605 62.3419C65.9865 61.7541 65.5234 61.2555 64.9713 60.8458H64.9179C64.0274 61.3089 63.1903 61.8788 62.4423 62.5378L62.5848 62.7159C62.7985 62.5734 63.0123 62.4487 63.226 62.3241C63.4575 62.52 63.6534 62.7337 63.8493 62.9652V68.6287C63.689 68.7712 63.5287 68.8959 63.3506 69.0027V69.0384C63.8493 69.6083 64.4192 70.0891 65.0426 70.5166H65.096C65.8974 69.9823 66.6811 69.4658 67.5003 69.0206ZM37.7757 62.1638C37.3661 61.6651 36.8852 61.2198 36.3331 60.8815H36.2975C35.4248 61.3979 34.8905 61.8254 34 62.4665L34.1247 62.6624C34.3028 62.5556 34.4809 62.4665 34.659 62.3597C34.8905 62.4843 35.1042 62.6446 35.3001 62.8227V69.0027C35.7454 69.6439 36.3331 70.1604 37.0099 70.5522H37.0633C37.7757 70.0179 38.5772 69.4836 39.343 69.0206C39.717 69.6083 40.1978 70.1248 40.7321 70.5522H40.7678C41.5514 69.9823 42.4241 69.3411 43.1543 68.8781L43.0296 68.6822C42.7981 68.789 42.5844 68.8959 42.3528 69.0027C42.1569 68.8603 41.9788 68.7178 41.8185 68.5397V62.7693C41.9966 62.6268 42.1391 62.52 42.3172 62.3953V62.3597C41.8007 61.8254 41.2308 61.3267 40.6253 60.8815H40.5719C39.6814 61.4158 39.058 61.8076 38.1853 62.4131L38.31 62.609L38.8977 62.2884C39.058 62.3775 39.2005 62.4665 39.343 62.5912V68.6644C39.0402 68.789 38.7731 68.9137 38.5059 69.0206C38.2388 68.8603 37.9894 68.6644 37.7935 68.4328L37.7757 62.1638ZM89.2461 68.9671L89.1215 68.7712C88.8721 68.8781 88.6584 68.9671 88.4447 69.074C88.2666 68.9849 88.0885 68.8603 87.9282 68.7178V62.3775C87.572 61.7898 87.1089 61.2733 86.539 60.8636H86.5212C85.6307 61.3267 84.7937 61.8966 84.0457 62.5556L84.1881 62.7337C84.4019 62.5912 84.6156 62.4665 84.8293 62.3419C85.0608 62.5378 85.2567 62.7515 85.4348 63.0008V68.5219C85.2745 68.6644 85.1142 68.789 84.9361 68.9137V68.9493C85.4526 69.5727 86.076 70.107 86.7706 70.5344H86.8062C87.6076 69.9645 88.4091 69.448 89.2461 68.9671ZM21.9784 69.0206L21.8537 68.8246C21.6222 68.9315 21.4263 69.0027 21.2126 69.0918C21.0701 69.0206 20.9454 68.9315 20.8386 68.8246V62.7159C21.0879 62.5734 21.3907 62.4487 21.6756 62.3241C21.9606 62.5022 22.1921 62.7337 22.388 63.0186V69.2343C22.7976 69.7329 23.2963 70.1604 23.8306 70.5166H23.8662C24.5964 69.9467 25.3623 69.4124 26.1637 68.9493L26.039 68.7534C25.8431 68.8425 25.6472 68.9315 25.4513 69.0027C25.2376 68.8959 25.0239 68.7534 24.8636 68.5753V62.4131C24.5074 61.7541 23.9731 61.202 23.3141 60.828H23.2963C22.4058 61.1842 21.5688 61.7007 20.8386 62.3241C20.4646 61.7363 20.0015 61.2377 19.4494 60.828H19.4138C18.5233 61.2911 17.6862 61.861 16.9382 62.52L17.0807 62.6981C17.2944 62.5556 17.5081 62.4309 17.7218 62.3062C17.9534 62.5022 18.1493 62.7159 18.3452 62.9474V68.6109C18.1849 68.7534 18.0246 68.8781 17.8465 68.9849V69.0206C18.3452 69.5905 18.9151 70.0713 19.5384 70.4988H19.5919C20.3577 69.9823 21.1591 69.4658 21.9784 69.0206ZM104.438 66.7943V66.3313L108.196 64.3188V64.2475C107.394 63.1611 106.682 62.0035 106.023 60.828H105.987C104.669 61.3979 103.316 61.8432 101.927 62.2172C102.016 62.8762 102.051 63.5351 102.051 64.1941V67.9163C102.799 68.8781 103.654 69.7508 104.58 70.5344H104.652C105.791 69.7686 106.985 69.074 108.196 68.4328L108.018 68.1657C107.448 68.4328 106.985 68.6822 106.522 68.8781C105.738 68.2369 105.061 67.5423 104.438 66.7943ZM60.7326 70.5166H60.786C61.5697 69.9467 62.4423 69.3233 63.1725 68.8425L63.0479 68.6466C62.7985 68.7534 62.6026 68.8603 62.3711 68.9671C62.1752 68.8246 61.9971 68.6822 61.8368 68.5041V63.8201C61.8012 63.268 61.8368 62.6981 61.9615 62.146C60.9463 61.8966 59.3612 61.2733 58.7201 60.8102H58.6666C57.7227 61.9144 56.6185 62.8762 55.3718 63.6598V63.7132C55.9774 64.4256 56.7966 64.9421 57.7049 65.1914C56.9569 65.5476 56.2089 65.8682 55.4253 66.1176C55.4965 66.6162 55.5321 67.1149 55.5321 67.6136V69.1096C55.9596 69.6973 56.4938 70.1782 57.1172 70.5166H57.1706C57.883 70.0001 58.6488 69.5014 59.3969 69.0206C59.7709 69.6083 60.2161 70.107 60.7326 70.5166ZM111.134 70.57C112.292 69.7864 113.574 69.1808 114.91 68.8068C114.839 68.4506 114.803 68.0944 114.803 67.7204V65.2983L112.47 64.2831H112.417L111.74 65.0312L111.028 64.7106V62.3597C111.651 63.0186 112.506 63.3926 113.414 63.3748C113.592 63.3748 113.752 63.357 113.931 63.3214C114.572 62.6446 114.946 61.7898 115.017 60.8636C114.91 60.8458 114.821 60.8458 114.714 60.8636C114.714 61.0417 114.696 61.202 114.661 61.3801C114.483 61.4514 114.287 61.5048 114.091 61.5048C113.485 61.487 112.915 61.2377 112.488 60.8102H112.435C111.277 61.576 109.995 62.1281 108.659 62.4665C108.73 62.894 108.766 63.3392 108.766 63.7845V66.0107L110.939 67.008H110.992L111.687 66.2422L112.506 66.5984V68.9315C111.758 68.3082 110.814 67.9876 109.834 68.0054C109.656 68.0054 109.496 68.0232 109.318 68.0588C108.677 68.7356 108.303 69.6083 108.231 70.5522C108.338 70.57 108.427 70.57 108.534 70.5522C108.534 70.3741 108.552 70.2138 108.588 70.0357C108.766 69.9645 108.962 69.911 109.158 69.911C109.852 69.8932 110.547 70.1248 111.063 70.6056H111.099V70.57H111.134ZM45.8258 70.57C46.9834 69.7864 48.2657 69.1808 49.6014 68.8068C49.5302 68.4506 49.4946 68.0944 49.4946 67.7204V65.2983L47.1615 64.2831H47.1081L46.4313 65.0312L45.7189 64.7106V62.3597C46.3422 63.0186 47.1971 63.3926 48.1054 63.3748C48.2835 63.3748 48.4438 63.357 48.6219 63.3214C49.2631 62.6446 49.6371 61.7898 49.7083 60.8636C49.6014 60.8458 49.5124 60.8458 49.4055 60.8636C49.4055 61.0417 49.3877 61.202 49.3521 61.3801C49.174 61.4514 48.9781 61.5048 48.7822 61.5048C48.1767 61.487 47.6067 61.2377 47.1793 60.8102H47.1437C45.986 61.576 44.7216 62.1281 43.368 62.4665C43.4571 62.894 43.4749 63.3392 43.4749 63.7845V66.0107L45.6477 67.008H45.7011L46.3957 66.2422L47.2149 66.5984V68.9315C46.5025 68.326 45.5942 68.0054 44.6681 68.0054C44.49 68.0054 44.3297 68.0232 44.1516 68.0588C43.5105 68.7356 43.1187 69.6083 43.0652 70.5344C43.1721 70.5522 43.2611 70.5522 43.368 70.5344C43.368 70.3563 43.3858 70.196 43.4214 70.0179C43.5995 69.9467 43.7954 69.8932 43.9913 69.8932C44.6503 69.8932 45.2915 70.1426 45.7723 70.5878H45.8079L45.8258 70.57ZM78.2753 68.041C78.3821 67.7026 78.3999 67.5067 78.3999 66.7053V62.3597C78.3999 61.861 78.3643 61.3801 78.2575 60.8815L78.578 60.739C78.6671 61.2198 78.7027 61.7185 78.7027 62.2172V66.4737C78.6849 67.5067 78.5959 67.7204 78.2753 68.041ZM32.4684 70.0891L32.1656 70.2851C31.6847 69.8932 31.2929 69.4124 30.9724 68.8959V62.4843C27.8734 60.7212 27.5351 60.5253 27.2323 60.4006L27.1611 59.9732H27.1789L31.2573 62.3775V68.7712C31.5957 69.2521 32.0053 69.6973 32.4684 70.0891ZM80.5549 61.0952C80.5549 60.3828 80.5727 60.1513 80.8755 59.8485C81.018 59.8663 81.3029 59.9019 81.4632 59.9197V68.3972C81.0358 68.5219 80.5906 68.5753 80.1453 68.5753C79.5042 68.5753 78.8808 68.4684 78.2753 68.2547C79.1123 67.9163 79.985 67.5423 80.6618 67.2218C80.5905 66.7409 80.5549 66.2422 80.5549 65.7435V61.0952ZM51.2043 61.8788C51.2043 61.0596 51.1687 60.3828 51.1331 60.0088L51.4893 59.7594H51.5071V68.0588L51.2399 68.2725H51.2043V61.8788ZM4.45352 59.4211C3.63426 60.5609 3.5096 60.8102 3.5096 62.2172V65.9929C3.5096 67.7204 3.43836 68.415 2.2451 69.7864L2.22729 69.7686C3.18902 68.5041 3.22464 67.8095 3.22464 66.0819V62.2884C3.22464 60.8993 3.36712 60.6321 4.45352 59.4211ZM10.8651 70.0891L10.5623 70.2851C10.0458 69.9467 9.58275 69.5192 9.17312 69.0384V61.0239C9.19093 60.454 9.1375 59.8841 9.03064 59.3142L9.38684 59.0649C9.45808 59.6704 9.47589 60.2937 9.45808 60.8993V68.9137C9.88552 69.3768 10.3486 69.7686 10.8651 70.0891ZM4.57819 58.673C4.27542 58.9402 3.8836 59.1005 3.47398 59.1183C3.02873 59.1183 2.65472 58.9046 2.28072 58.9046C1.92452 58.8868 1.58613 59.0292 1.3368 59.2608C1.22994 59.3498 1.1587 59.4567 1.10527 59.5813H1.08746C1.14089 59.3676 1.22994 59.1717 1.39023 59.0292C1.65737 58.7799 2.01357 58.6552 2.38758 58.673C2.81501 58.673 3.22464 58.8868 3.66989 58.8868C3.97265 58.8689 4.29323 58.7977 4.57819 58.673ZM13.7324 58.4949C14.1064 58.958 14.4983 59.4032 14.9257 59.8129L14.6764 59.9553C14.2489 59.5457 13.8749 59.1005 13.5187 58.6374L13.7324 58.4949ZM85.5239 58.4771C85.8979 58.9402 86.3075 59.3854 86.7171 59.8129L86.4856 59.9553C86.0582 59.5457 85.6664 59.1005 85.2923 58.6196L85.5239 58.4771ZM74.3749 60.9705C74.4462 60.5431 74.6599 60.1513 74.9448 59.8485C75.4969 59.2964 76.334 59.0292 77.4204 59.0292C79.1302 59.0292 81.1783 59.5635 82.514 59.5635C83.2086 59.5635 83.7785 59.2608 84.2416 58.4415L84.2772 58.4593C83.7785 59.4745 83.1908 59.8129 82.425 59.8129C81.0892 59.8129 79.0767 59.2786 77.3314 59.2786C76.245 59.2786 75.4791 59.5457 74.9448 60.08C74.7133 60.3294 74.5174 60.6321 74.3749 60.9705ZM53.6443 58.21L53.573 58.1744C52.451 58.8868 51.5605 59.4923 50.9194 59.991C50.9728 60.3828 50.9906 60.7568 50.9906 61.1486C50.7591 61.6829 50.4919 62.1816 50.1892 62.6803L50.2248 62.7337H50.9906V68.3794C50.8125 68.5219 50.67 68.6109 50.4919 68.7356V68.7712C51.1687 69.4836 51.9345 70.107 52.7894 70.6056H52.825C53.5908 70.0357 54.3923 69.537 55.2293 69.0918L55.1047 68.8959C54.9266 68.9671 54.7485 69.0384 54.5704 69.1274C54.1786 68.9137 53.8046 68.6822 53.4484 68.415V62.7159H53.5552C54.0183 62.7159 54.4813 62.7337 54.9444 62.7693C55.6568 61.8254 55.9774 61.2911 56.102 60.9527L56.0664 60.9171C55.4787 60.9883 54.891 61.0239 54.3032 61.0239H53.4662C53.4662 60.08 53.5196 59.1361 53.6443 58.1922M32.1656 70.5344H32.2012C32.9849 69.9645 33.8575 69.3768 34.5878 68.8959L34.4631 68.7C34.2137 68.8068 34.0178 68.9137 33.7863 69.0206C33.5904 68.8781 33.4123 68.7178 33.2698 68.5219V63.6776C33.2698 62.6446 33.3054 62.1281 33.3411 61.7185C28.7996 58.9046 27.5172 58.0319 26.8227 57.2661L26.7514 57.2839C26.7336 58.3703 26.8583 59.4567 27.0898 60.5075C27.7666 60.8102 28.4434 61.1842 29.0667 61.576C28.3187 61.95 27.4816 62.3241 26.6802 62.6624C26.7514 63.3214 26.7692 63.9804 26.7514 64.6393V68.9671C27.1967 69.6083 27.7844 70.1248 28.4612 70.5166H28.4968C29.2092 70.0001 29.9928 69.4836 30.7586 69.0027C31.1505 69.5905 31.6135 70.107 32.1656 70.5344ZM14.6586 60.2225H14.6942C15.4066 59.7238 15.9052 59.3854 16.5286 58.8689V58.8333C16.1011 58.2812 15.6381 57.7647 15.1394 57.2483H15.1038C14.5161 57.6757 13.9105 58.0853 13.2516 58.6374V58.673C13.679 59.2251 14.1421 59.7416 14.6586 60.2225ZM86.4322 60.2225H86.4678C87.1802 59.7238 87.6611 59.3854 88.3022 58.8689V58.8155C87.8748 58.2634 87.4117 57.7469 86.913 57.2483H86.8774C86.2897 57.6757 85.6664 58.0853 85.0252 58.6374V58.673C85.4526 59.2251 85.9157 59.7416 86.4322 60.2225ZM6.82223 69.2699L6.84004 69.2343V64.2653H9.01284V69.1452C9.45808 69.6795 9.97457 70.1426 10.5623 70.5344H10.5979C11.435 69.911 12.2898 69.3411 13.1981 68.8246L13.0735 68.6109C12.8241 68.7178 12.6104 68.8246 12.3789 68.9315C12.0761 68.789 11.8268 68.5753 11.6309 68.3082V60.1156C11.6131 59.1539 11.7021 58.21 11.9515 57.2839L11.8802 57.2483C10.8116 57.8538 9.77866 58.5306 8.83474 59.3142C8.97722 59.8841 9.03065 60.4718 9.01284 61.0774V62.5912H6.85784V59.9732C6.85784 58.4771 6.9647 58.0675 7.21404 57.2839L7.16061 57.2661C6.64413 57.9785 6.44822 58.6018 6.44822 60.1156V68.9315C6.09202 68.7356 5.6824 68.6465 5.27277 68.6644C4.72067 68.6644 4.15075 68.7712 3.63427 68.9849L3.61646 68.9671C5.53992 67.2574 5.59335 66.9546 5.59335 65.7079V60.4006C5.59335 58.8155 5.78926 58.1387 6.21669 57.3729L6.16326 57.3195C5.78926 57.551 5.37963 57.6579 4.95219 57.6757C4.36447 57.6757 3.56303 57.3729 2.86844 57.3729C2.35196 57.3551 1.85328 57.551 1.47928 57.9072C1.14089 58.2456 0.944981 58.7087 0.944981 59.1895C0.944981 59.4567 0.9806 59.706 1.06965 59.9553H1.12308C1.17651 59.7594 1.28337 59.5992 1.42585 59.4567C1.63956 59.243 1.94233 59.1361 2.2451 59.1361C2.70815 59.1361 3.02873 59.332 3.45617 59.332C3.8836 59.332 4.2398 59.1895 4.91657 58.7087L4.93438 58.7265C3.17121 60.5787 3.09997 60.8993 3.09997 62.3241V62.5734C2.83282 62.5556 2.56568 62.5378 2.28072 62.5022C1.76423 63.0721 1.26556 63.6954 0.820312 64.3366L0.855932 64.3722C1.3368 64.301 1.81766 64.2653 2.29853 64.2653H3.08216V66.7053C3.08216 68.2013 2.86844 68.8246 1.60394 70.4453L1.65737 70.5166C2.28072 70.2316 2.93968 70.0891 3.61646 70.0891C4.07951 70.0713 4.52476 70.2316 4.86314 70.5344H4.89876C5.46868 70.0357 6.10983 69.6083 6.78661 69.2699M75.8531 64.4612C75.8531 63.1967 76.3696 61.9857 77.2957 61.0952L77.2601 61.0239C76.4052 61.3089 75.6216 61.7898 74.9805 62.4309C74.179 63.2502 73.7338 64.3366 73.7338 65.4764C73.6981 66.7943 74.2324 68.0766 75.1764 68.9849C76.1915 70.0001 77.6163 70.5878 79.3617 70.5878C80.8043 70.6413 82.1934 70.0891 83.2264 69.0918C84.0279 68.2725 84.4909 67.1683 84.5087 66.0285H84.384C83.8319 67.0615 82.9414 67.8451 81.855 68.2547V59.9732C82.1578 59.991 82.3181 59.991 82.4072 59.991C83.547 59.991 84.4197 59.2786 84.8649 57.0702L84.758 57.0167C84.3306 57.6044 83.7429 57.8004 82.9415 57.8004C81.6235 57.8004 79.4685 57.2661 77.8478 57.2661C76.5833 57.2661 75.5147 57.6579 74.8202 58.3525C74.3215 58.8333 74.0365 59.5101 74.0543 60.2225C74.0543 60.6321 74.1434 61.0596 74.3037 61.4336H74.3571C74.464 60.9883 74.6777 60.5609 74.9983 60.2225C75.5147 59.706 76.2449 59.4211 77.2779 59.4211C78.3643 59.4567 79.4329 59.5635 80.5015 59.7594C79.7001 60.0622 78.6493 60.4718 77.9725 60.7924C78.0794 61.3445 78.1328 61.8966 78.115 62.4665V67.008C78.115 67.6314 78.0972 67.8807 77.9191 68.1123C77.5985 67.9698 77.3135 67.7739 77.0464 67.5245C76.245 66.7231 75.7997 65.6189 75.8353 64.4969" fill="black"/>
</svg>
