<svg width="432" height="44" viewBox="0 0 432 44" fill="none" xmlns="http://www.w3.org/2000/svg">
<path d="M69.9964 4.12488H40.7166L37.6738 15.033H38.9943C43.4724 7.85661 45.0225 5.7898 49.0987 5.7898H52.1989L46.2855 34.0361C45.7114 36.8493 44.8502 37.1363 40.9463 37.5382L40.6592 39.0309H55.6435L55.988 37.5382C52.5433 37.1938 51.4525 36.9641 52.0841 34.0361L57.94 5.7898H61.5569C65.6331 5.7898 64.7719 7.85661 65.9776 15.033H67.2406L69.9964 4.12488Z" fill="black"/>
<path d="M87.5586 35.8137C87.0993 35.8137 86.8696 35.584 86.8696 35.0673C86.927 34.321 87.0993 33.6321 87.3289 32.9431L91.1181 18.4181C91.2903 17.6717 91.4051 16.868 91.4051 16.1216C91.4051 13.8252 90.544 12.4473 88.0753 12.4473C83.3675 12.4473 77.9135 19.0496 74.9855 24.7333L81.1285 0.103882H80.3822L71.8279 2.11328L71.6557 2.91703L74.8133 4.46712L66.3164 39.0287H71.6557L73.4354 31.9097C75.617 23.1258 82.3341 16.0642 85.1473 16.0642C85.7788 16.0642 86.0085 16.4087 86.0085 17.0976C86.0085 17.6143 85.8936 18.1884 85.7788 18.7051L82.2767 31.6227C81.8749 33.0005 81.6452 34.4358 81.5878 35.8711C81.5878 38.0527 82.7934 39.5454 84.9751 39.5454C87.6734 39.5454 89.6828 37.4212 92.783 32.8283L91.9792 32.1968C89.7402 34.7803 88.4771 35.8137 87.5586 35.8137Z" fill="black"/>
<path d="M114.026 17.4976C114.026 14.7419 112.132 12.5028 107.883 12.5028C99.9605 12.5028 93.3008 21.6312 93.3008 30.3577C93.3008 35.8692 96.3436 39.5435 101.396 39.5435C105.702 39.5435 109.031 37.0748 112.189 32.3671L111.271 31.6208C108.859 34.721 106.563 36.3285 103.807 36.3285C100.592 36.3285 98.6974 33.8024 98.6974 29.3243C98.6974 28.7502 98.7549 28.0613 98.8123 27.4872C106.62 25.8796 114.026 23.7554 114.026 17.4976ZM107.079 14.1103C108.802 14.1103 109.491 15.3734 109.491 16.9809C109.491 21.8609 105.989 24.5592 98.9271 26.2815C99.7883 20.2533 103.176 14.0529 107.079 14.1103Z" fill="black"/>
<path d="M133.433 9.11965C134.007 6.3065 134.639 6.01944 138.255 5.61756L138.6 4.12488H124.534L124.247 5.61756C127.405 6.01944 128.266 6.19167 127.634 9.11965L122.41 33.9787C121.893 36.7919 121.204 37.0789 117.53 37.4808L117.186 38.9735H131.251L131.596 37.4808C128.381 37.0789 127.52 36.9067 128.151 33.9787L133.433 9.11965Z" fill="black"/>
<path d="M155.087 35.8138C154.628 35.8138 154.399 35.5841 154.399 35.0674C154.456 34.3211 154.628 33.6321 154.858 32.9432L158.647 18.4182C158.819 17.6718 158.934 16.8681 158.934 16.1217C158.934 13.8253 158.073 12.4474 155.604 12.4474C150.896 12.4474 145.442 19.1071 142.457 24.7334L145.729 12.4474H144.983L136.486 14.5716L136.314 15.318L139.185 16.9829L133.73 38.9714H139.07L140.849 31.8524C143.031 23.0685 149.748 16.0069 152.561 16.0069C153.193 16.0069 153.423 16.3514 153.423 17.0403C153.365 17.557 153.308 18.1311 153.135 18.6478L149.633 31.5653C149.232 32.9432 149.002 34.3785 148.944 35.8138C148.944 37.9954 150.15 39.4881 152.332 39.4881C155.03 39.4881 157.039 37.3639 160.14 32.771L159.393 32.1394C157.326 34.7804 156.063 35.8138 155.087 35.8138Z" fill="black"/>
<path d="M181.943 35.8137C181.484 35.8137 181.254 35.584 181.254 35.0673C181.312 34.321 181.484 33.6321 181.714 32.9431L189.694 0.103882H189.005L180.393 2.11328L180.278 2.91703L183.436 4.46712L181.025 14.1696C179.762 12.964 178.499 12.5047 176.489 12.5047C168.854 12.5047 160.988 21.9202 160.988 32.1394C160.988 36.7323 162.94 39.5454 166.328 39.5454C170.346 39.5454 175.169 33.6895 178.097 27.3168C177.236 29.9577 176.145 34.4358 176.145 35.8711C176.145 38.1101 177.293 39.5454 179.417 39.5454C182.116 39.5454 184.125 37.4212 187.225 32.8283L186.364 32.1968C184.182 34.7803 182.919 35.8137 181.943 35.8137ZM168.567 35.6415C166.959 35.6415 166.385 33.9191 166.385 31.393C166.385 23.6425 171.207 13.94 176.949 13.94C178.556 13.94 179.934 14.916 180.508 16.3513C177.638 28.178 172.126 35.6415 168.567 35.6415Z" fill="black"/>
<path d="M224.376 32.138C222.194 34.779 220.931 35.8124 220.07 35.8124C219.611 35.8124 219.381 35.5827 219.381 35.066C219.439 34.3197 219.611 33.6307 219.783 32.9418L223.4 17.9575L225.18 12.1589H224.031L220.013 14.5702C218.692 13.1349 216.798 12.3886 214.846 12.5034C207.153 12.5034 199.574 21.9188 199.574 32.138C199.574 36.7309 201.469 39.5441 204.856 39.5441C208.875 39.5441 213.008 34.2049 215.936 27.947C215.018 30.5305 214.157 34.4345 214.157 35.8698C214.157 38.1088 215.305 39.5441 217.487 39.5441C220.127 39.5441 222.194 37.4199 225.294 32.827L224.376 32.138ZM207.153 35.6401C205.66 35.6401 204.971 34.09 204.971 31.7362C204.971 23.4115 209.793 13.9961 215.305 13.9961C216.855 13.9961 218.29 14.9721 218.807 16.4074C215.764 28.2341 210.712 35.6401 207.153 35.6401Z" fill="black"/>
<path d="M246.432 35.8138C245.972 35.8138 245.743 35.5841 245.743 35.0674C245.8 34.3211 245.972 33.6321 246.202 32.9432L250.049 18.4182C250.221 17.6718 250.336 16.8681 250.336 16.1217C250.336 13.8253 249.474 12.4474 247.006 12.4474C242.298 12.4474 236.844 19.1071 233.859 24.7334L237.131 12.4474H236.385L227.888 14.5716L227.773 15.318L230.644 16.9829L225.189 38.9714H230.529L232.308 31.8524C234.49 23.0685 241.207 16.0069 244.02 16.0069C244.652 16.0069 244.881 16.3514 244.881 17.0403C244.824 17.557 244.709 18.1311 244.594 18.6478L241.15 31.5653C240.748 32.9432 240.518 34.3785 240.461 35.8138C240.461 37.9954 241.666 39.4881 243.848 39.4881C246.546 39.4881 248.556 37.3639 251.656 32.771L250.795 32.1394C248.671 34.7804 247.408 35.8138 246.432 35.8138Z" fill="black"/>
<path d="M197.331 8.83271C199.283 8.83271 200.833 7.2252 200.833 5.27322C200.833 3.49347 199.398 2.1156 197.676 2.1156C197.618 2.1156 197.618 2.1156 197.561 2.1156C195.609 2.1156 194.059 3.66569 194.059 5.61767C194.059 5.67508 194.059 5.67509 194.059 5.7325C194.059 7.51225 195.494 8.89012 197.216 8.89012C197.274 8.83271 197.331 8.83271 197.331 8.83271Z" fill="black"/>
<path d="M193.715 35.8138C193.256 35.8138 193.026 35.5841 193.026 35.0674C193.083 34.3211 193.256 33.6321 193.485 32.9432L198.537 12.4474H197.791L189.294 14.5716L189.122 15.318L191.993 16.9829L188.376 31.5653C187.974 32.9432 187.744 34.3785 187.744 35.8138C187.744 37.9954 188.892 39.4881 191.074 39.4881C193.715 39.4881 195.782 37.3639 198.882 32.771L198.021 32.1394C195.897 34.7804 194.633 35.8138 193.715 35.8138Z" fill="black"/>
<path d="M32.1592 16.9254L18.4379 4.52454C16.6581 2.91702 17.8064 0.333523 17.8064 0.333523L17.5193 0.103882L14.6487 3.72078C13.0412 5.73018 13.2709 8.65816 15.2228 10.3805L29.0015 22.7813C30.7813 24.3888 29.6331 26.9723 29.6331 26.9723L29.9201 27.202L32.7907 23.5851C34.3982 21.5183 34.1111 18.6477 32.1592 16.9254Z" fill="#FF1204"/>
<path d="M32.1592 16.9254L18.4379 4.52454C16.6581 2.91702 17.8064 0.333523 17.8064 0.333523L17.5193 0.103882L14.6487 3.72078C13.0412 5.73018 13.2709 8.65816 15.2228 10.3805L29.0015 22.7813C30.7813 24.3888 29.6331 26.9723 29.6331 26.9723L29.9201 27.202L32.7907 23.5851C34.3982 21.5183 34.1111 18.6477 32.1592 16.9254Z" fill="black"/>
<path d="M25.8467 24.8509L12.1254 12.4501C10.3456 10.8426 11.4939 8.25906 11.4939 8.25906L11.2068 8.02942L8.33623 11.6463C6.72872 13.6557 6.95836 16.5837 8.91035 18.306L22.6316 30.7069C24.4114 32.3144 23.2632 34.8979 23.2632 34.8979L23.5502 35.1275L26.4208 31.5106C28.0283 29.5012 27.7412 26.5733 25.8467 24.8509Z" fill="#FF1204"/>
<path d="M25.8467 24.8509L12.1254 12.4501C10.3456 10.8426 11.4939 8.25906 11.4939 8.25906L11.2068 8.02942L8.33623 11.6463C6.72872 13.6557 6.95836 16.5837 8.91035 18.306L22.6316 30.7069C24.4114 32.3144 23.2632 34.8979 23.2632 34.8979L23.5502 35.1275L26.4208 31.5106C28.0283 29.5012 27.7412 26.5733 25.8467 24.8509Z" fill="black"/>
<path d="M19.4717 32.7729L5.75037 20.4295C3.97063 18.8219 5.11885 16.2384 5.11885 16.2384L4.8318 16.0088L1.96123 19.6257C0.353719 21.6351 0.583364 24.5631 2.53535 26.2854L16.2566 38.6862C18.0364 40.2938 16.8882 42.8773 16.8882 42.8773L17.1752 43.1069L20.0458 39.49C21.6533 37.4232 21.4236 34.4952 19.4717 32.7729Z" fill="#FF1204"/>
<path d="M19.4717 32.7729L5.75037 20.4295C3.97063 18.8219 5.11885 16.2384 5.11885 16.2384L4.8318 16.0088L1.96123 19.6257C0.353719 21.6351 0.583364 24.5631 2.53535 26.2854L16.2566 38.6862C18.0364 40.2938 16.8882 42.8773 16.8882 42.8773L17.1752 43.1069L20.0458 39.49C21.6533 37.4232 21.4236 34.4952 19.4717 32.7729Z" fill="black"/>
<path d="M257.857 39.0312H278.755V32.6587H266.01V23.9323H275.655V18.019H266.01V10.3834H278.123V4.01083H257.915V39.0312H257.857ZM279.157 39.0312H287.424L293.05 26.2287L298.734 39.0312H307.862L299.021 20.7747L306.829 4.01083H298.619L293.796 15.3781L288.859 4.01083H279.731L287.998 21.0043L279.157 39.0312ZM308.723 39.0312H316.875V25.9417H320.148C327.783 25.9417 332.032 22.6693 332.032 15.8374V14.3447C332.032 7.51287 328.128 3.95342 319.918 3.95342H308.723V39.0312ZM316.875 20.3154V10.2112H319.574C322.616 10.2112 324.109 11.3594 324.109 14.517V15.8374C324.109 18.8802 322.616 20.3154 319.574 20.3154H316.875ZM333.582 39.0312H341.734V25.2527H344.203L350.346 39.0312H358.9L351.838 23.8175C355.053 22.6118 357.35 20.2006 357.35 15.3207V14.0577C357.35 7.28323 353.101 4.01083 345.007 4.01083H333.524L333.582 39.0312ZM341.677 19.8561V10.2686H344.72C347.82 10.2686 349.427 11.4168 349.427 14.3447V15.4929C349.427 18.5931 347.877 19.8561 344.72 19.8561H341.677ZM360.048 39.0312H380.946V32.6587H368.143V23.9323H377.788V18.019H368.143V10.3834H380.257V4.01083H360.048V39.0312ZM394.38 39.5479C401.9 39.5479 406.321 35.357 406.321 28.8122C406.321 21.5785 401.958 19.3394 395.528 17.5023C391.394 16.2967 390.304 15.3207 390.304 12.9095C390.304 10.7853 391.567 9.52225 393.92 9.52225C396.274 9.52225 397.767 10.6704 397.997 13.6558H405.632C405.288 6.70912 401.097 3.49414 393.978 3.49414C386.859 3.49414 382.496 7.51287 382.496 13.4836C382.496 19.9135 385.768 22.5544 392.772 24.6212C396.791 25.7694 398.398 26.688 398.398 29.5585C398.398 32.0846 396.963 33.4624 394.38 33.4624C390.935 33.4624 389.787 31.7975 389.615 28.4103H381.807C381.979 35.8737 386.285 39.5479 394.38 39.5479ZM419.64 39.5479C427.161 39.5479 431.582 35.357 431.582 28.8122C431.582 21.5785 427.218 19.3394 420.788 17.5023C416.655 16.2967 415.564 15.3207 415.564 12.9095C415.564 10.7853 416.827 9.52225 419.181 9.52225C421.535 9.52225 423.027 10.6704 423.257 13.6558H430.893C430.548 6.70912 426.357 3.49414 419.238 3.49414C412.119 3.49414 407.756 7.51287 407.756 13.4836C407.756 19.9135 411.029 22.5544 418.033 24.6212C422.052 25.7694 423.659 26.688 423.659 29.5585C423.659 32.0846 422.166 33.4624 419.64 33.4624C416.196 33.4624 415.047 31.7975 414.875 28.4103H407.01C407.182 35.8737 411.545 39.5479 419.64 39.5479Z" fill="black"/>
</svg>
