<svg width="432" height="54" viewBox="0 0 432 54" fill="none" xmlns="http://www.w3.org/2000/svg">
<path d="M9.95089 1.18481H0.746094V52.8264H9.95089V1.18481Z" fill="#CB0F22"/>
<path d="M9.95089 1.18481H0.746094V52.8264H9.95089V1.18481Z" fill="black"/>
<path d="M56.0967 39.8488H55.95L31.9176 1.19188H19.7246V52.8334H28.9276V12.9272H29.0743L53.6051 52.8246H65.2926V1.18481H56.0967V39.8488Z" fill="#CB0F22"/>
<path d="M56.0967 39.8488H55.95L31.9176 1.19188H19.7246V52.8334H28.9276V12.9272H29.0743L53.6051 52.8246H65.2926V1.18481H56.0967V39.8488Z" fill="black"/>
<path d="M112.491 6.83776C109.734 4.80576 106.607 3.3315 103.286 2.49776C99.97 1.63456 96.5584 1.19343 93.1321 1.18481H74.7949V52.8264H93.1304C96.5689 52.8147 99.988 52.3113 103.284 51.3314C106.614 50.374 109.736 48.8032 112.489 46.6999C115.268 44.5462 117.538 41.8064 119.137 38.6755C120.924 35.0532 121.801 31.0502 121.694 27.0127C121.834 22.7939 120.957 18.6035 119.137 14.795C117.564 11.6662 115.289 8.94301 112.491 6.83776ZM110.006 35.6856C108.896 37.8494 107.28 39.7134 105.295 41.1194C103.341 42.4702 101.147 43.4358 98.831 43.9644C96.4845 44.5185 94.0818 44.7996 91.6708 44.802H83.9998V9.06251H91.6708C94.076 9.06449 96.4749 9.30902 98.831 9.79233C101.145 10.2496 103.343 11.1672 105.295 12.4907C107.297 13.8958 108.916 15.7788 110.006 17.9687C111.328 20.7948 111.955 23.8966 111.833 27.0144C111.941 30.0106 111.314 32.9877 110.006 35.6856Z" fill="#CB0F22"/>
<path d="M112.491 6.83776C109.734 4.80576 106.607 3.3315 103.286 2.49776C99.97 1.63456 96.5584 1.19343 93.1321 1.18481H74.7949V52.8264H93.1304C96.5689 52.8147 99.988 52.3113 103.284 51.3314C106.614 50.374 109.736 48.8032 112.489 46.6999C115.268 44.5462 117.538 41.8064 119.137 38.6755C120.924 35.0532 121.801 31.0502 121.694 27.0127C121.834 22.7939 120.957 18.6035 119.137 14.795C117.564 11.6662 115.289 8.94301 112.491 6.83776ZM110.006 35.6856C108.896 37.8494 107.28 39.7134 105.295 41.1194C103.341 42.4702 101.147 43.4358 98.831 43.9644C96.4845 44.5185 94.0818 44.7996 91.6708 44.802H83.9998V9.06251H91.6708C94.076 9.06449 96.4749 9.30902 98.831 9.79233C101.145 10.2496 103.343 11.1672 105.295 12.4907C107.297 13.8958 108.916 15.7788 110.006 17.9687C111.328 20.7948 111.955 23.8966 111.833 27.0144C111.941 30.0106 111.314 32.9877 110.006 35.6856Z" fill="black"/>
<path d="M138.033 1.18481H128.828V52.8264H138.033V1.18481Z" fill="#CB0F22"/>
<path d="M138.033 1.18481H128.828V52.8264H138.033V1.18481Z" fill="black"/>
<path d="M163.932 1.18481L141.432 52.8264H151.732L156.408 41.0098H178.836L183.656 52.8264H194.176L171.894 1.18481H163.932ZM159.55 33.1321L167.659 12.1267L175.621 33.1321H159.55Z" fill="#CB0F22"/>
<path d="M163.932 1.18481L141.432 52.8264H151.732L156.408 41.0098H178.836L183.656 52.8264H194.176L171.894 1.18481H163.932ZM159.55 33.1321L167.659 12.1267L175.621 33.1321H159.55Z" fill="black"/>
<path d="M245.104 0.829834H204.035V9.4462H219.801V53.2807H229.344V9.4462H245.11L245.104 0.829834Z" fill="#CB0F22"/>
<path d="M245.104 0.829834H204.035V9.4462H219.801V53.2807H229.344V9.4462H245.11L245.104 0.829834Z" fill="black"/>
<path d="M289.409 8.05036C286.941 5.7075 284.031 3.87953 280.849 2.6731C273.943 0.123453 266.354 0.123453 259.448 2.6731C256.28 3.88501 253.384 5.71197 250.925 8.04861C248.489 10.4079 246.573 13.25 245.299 16.3928C242.622 23.2687 242.622 30.8988 245.299 37.7746C246.581 40.9284 248.492 43.7875 250.917 46.1772C253.364 48.5532 256.262 50.4158 259.439 51.6552C266.341 54.2554 273.953 54.2554 280.855 51.6552C284.047 50.4367 286.954 48.5763 289.398 46.1891C291.842 43.8019 293.771 40.9386 295.064 37.7764C297.795 30.904 297.795 23.2476 295.064 16.3751C293.769 13.2423 291.844 10.4088 289.409 8.05036ZM287.183 27.112C287.198 29.5158 286.785 31.9032 285.965 34.1627C285.207 36.2626 284.044 38.1934 282.542 39.8457C281.041 41.4646 279.215 42.7494 277.184 43.6167C274.954 44.5559 272.554 45.0245 270.134 44.9932C267.739 45.0297 265.363 44.5619 263.161 43.6202C261.152 42.7404 259.347 41.4547 257.859 39.8439C256.358 38.1913 255.195 36.2606 254.437 34.1609C253.617 31.9012 253.205 29.5139 253.221 27.1102C253.207 24.7412 253.619 22.389 254.437 20.1656C255.205 18.0697 256.359 16.1362 257.838 14.4649C259.316 12.8287 261.122 11.5231 263.14 10.6339C265.369 9.70703 267.76 9.22989 270.174 9.22989C272.589 9.22989 274.98 9.70703 277.209 10.6339C279.234 11.5302 281.05 12.8372 282.542 14.472C284.038 16.134 285.202 18.0665 285.972 20.1656C286.787 22.3902 287.197 24.7428 287.183 27.112Z" fill="#CB0F22"/>
<path d="M289.409 8.05036C286.941 5.7075 284.031 3.87953 280.849 2.6731C273.943 0.123453 266.354 0.123453 259.448 2.6731C256.28 3.88501 253.384 5.71197 250.925 8.04861C248.489 10.4079 246.573 13.25 245.299 16.3928C242.622 23.2687 242.622 30.8988 245.299 37.7746C246.581 40.9284 248.492 43.7875 250.917 46.1772C253.364 48.5532 256.262 50.4158 259.439 51.6552C266.341 54.2554 273.953 54.2554 280.855 51.6552C284.047 50.4367 286.954 48.5763 289.398 46.1891C291.842 43.8019 293.771 40.9386 295.064 37.7764C297.795 30.904 297.795 23.2476 295.064 16.3751C293.769 13.2423 291.844 10.4088 289.409 8.05036ZM287.183 27.112C287.198 29.5158 286.785 31.9032 285.965 34.1627C285.207 36.2626 284.044 38.1934 282.542 39.8457C281.041 41.4646 279.215 42.7494 277.184 43.6167C274.954 44.5559 272.554 45.0245 270.134 44.9932C267.739 45.0297 265.363 44.5619 263.161 43.6202C261.152 42.7404 259.347 41.4547 257.859 39.8439C256.358 38.1913 255.195 36.2606 254.437 34.1609C253.617 31.9012 253.205 29.5139 253.221 27.1102C253.207 24.7412 253.619 22.389 254.437 20.1656C255.205 18.0697 256.359 16.1362 257.838 14.4649C259.316 12.8287 261.122 11.5231 263.14 10.6339C265.369 9.70703 267.76 9.22989 270.174 9.22989C272.589 9.22989 274.98 9.70703 277.209 10.6339C279.234 11.5302 281.05 12.8372 282.542 14.472C284.038 16.134 285.202 18.0665 285.972 20.1656C286.787 22.3902 287.197 24.7428 287.183 27.112Z" fill="black"/>
<path d="M347.028 26.9033C347.132 22.8004 346.274 18.7301 344.524 15.0178C342.968 11.8504 340.732 9.06529 337.977 6.86086C335.304 4.75517 332.253 3.17901 328.989 2.21696C325.802 1.2616 322.495 0.771178 319.168 0.760864H300.967V53.0474H319.168C322.511 53.0365 325.833 52.5071 329.014 51.4782C332.271 50.4464 335.311 48.8256 337.982 46.6964C340.723 44.483 342.953 41.7036 344.52 38.5484C346.261 34.918 347.12 30.9282 347.028 26.9033ZM337.007 26.9033C337.049 29.4342 336.567 31.9464 335.593 34.2826C334.707 36.3574 333.367 38.2066 331.67 39.6935C329.888 41.2129 327.822 42.3642 325.593 43.081C323.07 43.8949 320.432 44.2977 317.781 44.2738H310.498V9.46202H317.781C320.433 9.43868 323.073 9.83103 325.604 10.6248C327.828 11.3185 329.893 12.4465 331.679 13.9434C333.376 15.4123 334.715 17.249 335.595 19.3136C336.581 21.7199 337.062 24.3033 337.007 26.9033Z" fill="#CB0F22"/>
<path d="M347.028 26.9033C347.132 22.8004 346.274 18.7301 344.524 15.0178C342.968 11.8504 340.732 9.06529 337.977 6.86086C335.304 4.75517 332.253 3.17901 328.989 2.21696C325.802 1.2616 322.495 0.771178 319.168 0.760864H300.967V53.0474H319.168C322.511 53.0365 325.833 52.5071 329.014 51.4782C332.271 50.4464 335.311 48.8256 337.982 46.6964C340.723 44.483 342.953 41.7036 344.52 38.5484C346.261 34.918 347.12 30.9282 347.028 26.9033ZM337.007 26.9033C337.049 29.4342 336.567 31.9464 335.593 34.2826C334.707 36.3574 333.367 38.2066 331.67 39.6935C329.888 41.2129 327.822 42.3642 325.593 43.081C323.07 43.8949 320.432 44.2977 317.781 44.2738H310.498V9.46202H317.781C320.433 9.43868 323.073 9.83103 325.604 10.6248C327.828 11.3185 329.893 12.4465 331.679 13.9434C333.376 15.4123 334.715 17.249 335.595 19.3136C336.581 21.7199 337.062 24.3033 337.007 26.9033Z" fill="black"/>
<path d="M373.781 0.605591H365.625L342.789 53.2826H353.579L358.491 40.7363H380.49L385.282 53.2826H396.746L373.869 0.799972L373.781 0.605591ZM376.853 31.9609H362.058L369.479 13.6167L376.853 31.9609Z" fill="#CB0F22"/>
<path d="M373.781 0.605591H365.625L342.789 53.2826H353.579L358.491 40.7363H380.49L385.282 53.2826H396.746L373.869 0.799972L373.781 0.605591ZM376.853 31.9609H362.058L369.479 13.6167L376.853 31.9609Z" fill="black"/>
<path d="M420.718 1.08459L407.779 21.8798L395.005 1.24365L394.906 1.08459H383.217L402.766 30.4272V53.2828H412.372V30.4272L431.921 1.08459H420.718Z" fill="#CB0F22"/>
<path d="M420.718 1.08459L407.779 21.8798L395.005 1.24365L394.906 1.08459H383.217L402.766 30.4272V53.2828H412.372V30.4272L431.921 1.08459H420.718Z" fill="black"/>
</svg>
