<svg width="282" height="54" viewBox="0 0 282 54" fill="none" xmlns="http://www.w3.org/2000/svg">
<path d="M0.416016 0.664299C6.88642 0.675711 13.3454 0.550182 19.8158 0.698534C27.473 1.14359 34.263 6.32448 37.9147 12.909C41.6235 19.8929 44.8644 27.1165 48.6188 34.0776C49.8513 36.5311 52.2934 38.2429 55.0778 38.3113C54.9751 25.7471 55.0322 13.1829 55.0436 0.618652C60.7152 0.664299 66.3868 0.641476 72.0469 0.652887C72.0241 6.13048 72.0584 11.5967 71.9785 17.0743C68.0415 18.5806 64.7435 22.0726 64.6522 26.466C64.1044 31.2589 67.6421 35.5041 71.9899 37.0332C72.0698 42.5336 72.0013 48.0341 72.0584 53.5345C66.421 53.5801 60.7836 53.5345 55.1577 53.5801C48.6302 53.9111 42.1827 50.8527 37.9718 45.9343C33.3843 40.297 30.9992 33.2788 27.473 26.991C25.088 22.6203 23.3991 16.0244 17.3737 15.7391C17.3851 28.3261 17.3167 40.9132 17.4194 53.5002C11.7592 53.5915 6.08761 53.5687 0.427427 53.5231C0.473074 35.9035 0.484486 18.2839 0.416016 0.664299Z" fill="black"/>
<path d="M77 0.686203C124.962 0.651969 172.924 0.549266 220.886 0.731848C228.029 13.7408 235.355 26.6356 242.453 39.6673C249.539 26.7611 256.055 13.5354 263.096 0.606323C269.11 0.720437 275.124 0.526444 281.149 0.743259C280.145 2.21532 279.129 3.66456 278.285 5.23933C269.817 21.3636 261.259 37.4535 252.735 53.5549C245.865 53.5549 238.995 53.5435 232.126 53.5549C224.697 40.0667 217.086 26.6698 209.634 13.193C202.068 13.1132 194.503 13.1816 186.937 13.1588C186.925 26.6242 186.994 40.0896 186.903 53.5435C181.471 53.5549 176.028 53.5664 170.596 53.5321C170.596 40.0667 170.664 26.5899 170.562 13.1132C162.22 13.2044 153.878 13.136 145.548 13.1588C147.066 18.9443 146.929 24.9581 146.735 30.8806C146.484 36.9172 144.875 43.3076 140.39 47.621C136.088 52.0601 129.629 53.5892 123.627 53.5664C108.107 53.5207 92.5879 53.612 77.0685 53.5093C77.1141 48.009 77.0456 42.5088 77.1369 37.0199C80.8 35.5935 84.018 32.5238 84.3603 28.4386C85.1591 23.4404 81.7015 18.7846 77.1255 17.1071C77.0456 11.6297 77.1712 6.15224 77 0.686203ZM93.535 13.2615C93.672 22.459 93.5807 31.668 93.5921 40.8655C102.881 40.9911 112.17 40.9112 121.47 40.9226C125.122 41.0823 129.424 39.074 129.926 35.0686C130.222 29.9335 130.143 24.7641 129.971 19.6176C129.618 15.4411 125.27 13.1246 121.436 13.2044C112.136 13.1588 102.835 13.0447 93.535 13.2615Z" fill="black"/>
<path d="M65.9744 26.5521C66.0535 22.7462 68.9103 19.7213 72.3208 18.4165C73.8036 18.2583 75.2963 18.2682 76.7791 18.4461C80.7431 19.8993 83.7384 23.9325 83.0464 28.2623C82.7499 31.8013 79.9622 34.4604 76.789 35.6961C75.3062 35.8444 73.8234 35.8543 72.3307 35.706C68.5644 34.3813 65.4999 30.704 65.9744 26.5521Z" fill="black"/>
</svg>
