<svg width="135" height="64" viewBox="0 0 135 64" fill="none" xmlns="http://www.w3.org/2000/svg">
<g clip-path="url(#clip0_1445_860)">
<path d="M16.5381 -15.7236H120.718C132.224 -15.7236 141.553 -9.65044 141.553 -2.15632V65.6839C141.553 73.1762 132.224 79.2512 120.718 79.2512H16.5381C5.03242 79.2512 -4.29688 73.1762 -4.29688 65.6839V-2.15632C-4.29688 -9.65044 5.03242 -15.7236 16.5381 -15.7236Z" fill="black"/>
<path d="M36.3412 17.6437H54.046C54.6746 17.6437 55.1666 17.5231 55.522 17.2838L56.0571 16.924L56.2554 16.9963L56.3713 17.2337L58.5545 26.9334V27.0558L58.4385 27.3638L58.1747 27.4862C57.9222 27.4862 57.6416 27.0688 57.3273 26.2322C57.0111 25.3956 56.6669 24.6759 56.2872 24.0768C55.3088 22.5705 54.1321 21.3536 52.7645 20.4262C51.3727 19.495 49.8013 18.8605 48.1494 18.5675V41.0331C48.1494 42.1702 48.2355 42.9697 48.402 43.4279C48.5703 43.8842 48.864 44.2367 49.2849 44.4871C49.6479 44.7078 50.2241 44.8562 51.0154 44.9378C51.8067 45.0195 52.1996 45.2198 52.1996 45.5352L52.0312 45.9043L51.4644 46.0063H38.7133L38.1054 45.9043L37.937 45.5352C37.937 45.2198 38.3018 45.025 39.0295 44.9471C39.7572 44.8692 40.2941 44.7579 40.644 44.6077C41.1154 44.4092 41.4914 44.0308 41.6841 43.5615C41.8861 43.0829 41.989 42.237 41.989 41.0331V18.5675C40.2679 18.881 38.7339 19.4987 37.3758 20.415C35.9671 21.3889 34.7661 22.6336 33.8513 24.0749C33.4622 24.6926 33.1086 25.4142 32.7999 26.2434C32.4931 27.0688 32.2125 27.4862 31.9618 27.4862L31.7317 27.3656L31.627 27.0558V26.9334L34.0776 17.2133L34.2048 17.0167L34.4144 16.9258L34.927 17.2857C35.2431 17.525 35.7127 17.6455 36.3412 17.6437ZM73.7375 17.972C71.0249 17.972 68.9484 19.1555 67.506 21.5262C66.0656 23.8968 65.3453 27.3285 65.3453 31.825C65.3453 36.3178 66.0656 39.7513 67.506 42.122C68.9484 44.4927 71.023 45.678 73.7375 45.678C76.452 45.678 78.4985 44.4945 79.9259 42.122C81.3514 39.7513 82.0642 36.3196 82.0642 31.825C82.0642 27.3304 81.3458 23.8968 79.911 21.5262C78.478 19.1555 76.4183 17.972 73.7338 17.972H73.7375ZM73.7375 17.0872C78.0982 17.0872 81.705 18.4747 84.5504 21.2498C87.3977 24.0248 88.8176 27.5474 88.8176 31.8269C88.8176 36.1026 87.3958 39.6178 84.5504 42.4132C81.7031 45.2087 78.0982 46.6055 73.7375 46.6055C71.9341 46.6055 70.2486 46.3532 68.6809 45.8561C67.1207 45.3589 65.6596 44.5947 64.3594 43.6023C62.513 42.2185 61.0912 40.5082 60.1016 38.4751C59.0989 36.3994 58.59 34.1252 58.6125 31.8269C58.6125 27.5511 60.0361 24.0248 62.8815 21.2498C65.7288 18.4747 69.3487 17.0872 73.7375 17.0872ZM91.4366 17.6437H102.596C102.917 17.6437 103.138 17.6826 103.265 17.7661L103.454 18.1742C103.454 18.4358 103.185 18.612 102.648 18.7122C102.231 18.7715 101.823 18.8902 101.441 19.0609C100.953 19.3224 100.609 19.6786 100.414 20.1294C100.22 20.5801 100.121 21.4315 100.121 22.6762V40.9905C100.121 42.2389 100.218 43.0921 100.414 43.5485C100.609 44.0067 100.959 44.3665 101.466 44.6281C101.688 44.7357 102.077 44.8451 102.629 44.9471C103.181 45.0492 103.458 45.2328 103.458 45.4943L103.301 45.9043C103.194 45.9711 102.962 46.0063 102.599 46.0063H91.4404C91.0644 46.0063 90.8174 45.9692 90.7052 45.895L90.5387 45.4943C90.5387 45.2328 90.8081 45.0547 91.345 44.9471C91.8819 44.8432 92.2785 44.7301 92.5273 44.6077C92.9969 44.3832 93.3691 44.0011 93.5787 43.5299C93.7882 43.0588 93.8948 42.211 93.8948 40.9923V21.6282C93.8948 20.9567 93.7545 20.3946 93.4739 19.942C93.1933 19.4912 92.7892 19.1555 92.256 18.9347C92.0615 18.868 91.7865 18.8049 91.4366 18.7492C90.8343 18.6398 90.5331 18.4469 90.5331 18.1705L90.7314 17.7624C90.8642 17.6789 91.0962 17.64 91.4329 17.64L91.4366 17.6437Z" fill="white"/>
</g>
<defs>
<clipPath id="clip0_1445_860">
<rect width="134.4" height="63" fill="white" transform="translate(0.419922 0.105469)"/>
</clipPath>
</defs>
</svg>
