<svg width="159" height="91" viewBox="0 0 159 91" fill="none" xmlns="http://www.w3.org/2000/svg">
<g clip-path="url(#clip0_1445_938)">
<path d="M102.138 50.372C99.0911 49.5248 96.0336 48.7055 92.997 47.813C91.8988 47.4888 90.9715 47.5167 89.8733 48.0257C82.4264 51.4911 75.1086 50.759 67.8639 47.2413C51.6315 39.3586 50.739 16.1954 64.0673 6.00826C75.119 -2.43916 90.9715 -0.905165 99.4712 10.0873C105.907 18.4092 107.34 28.1849 100.322 39.3308C99.9244 39.9653 99.4816 40.5719 99.0389 41.1785C97.3061 43.5492 97.3201 43.5318 99.1957 45.8886C100.294 47.2692 101.333 48.6986 102.4 50.1071C102.313 50.1942 102.225 50.2849 102.138 50.372ZM73.6373 15.7073C71.6257 15.5504 69.9244 16.3557 68.6135 17.8514C65.3294 21.5992 65.5769 26.0373 68.7216 30.6323C71.2074 34.2616 74.861 36.6532 78.3892 39.1286C79.0586 39.5992 79.9929 39.8049 80.9621 39.1739C82.9912 37.8491 85.076 36.6044 86.8959 34.9937C89.8733 32.3581 92.3974 29.4016 93.2027 25.3401C93.9244 21.7038 92.2126 17.9281 89.1411 16.3523C86.2196 14.8496 83.1272 15.5922 80.5264 18.5521C79.8953 19.2703 79.6513 19.1448 79.1458 18.5068C77.7617 16.7567 76.0499 15.5748 73.6338 15.7108L73.6373 15.7073Z" fill="black"/>
</g>
<path d="M0.824219 70.2586V67.7964L4.62957 67.871L8.26083 67.7964V70.2338L6.32084 70.2089L8.88262 79.9337C8.99869 80.3151 9.08159 80.6384 9.13133 80.9037C9.19766 81.1524 9.26398 81.4509 9.33031 81.7991L9.50441 80.7793L9.75313 79.8093L12.3895 70.2089L10.2506 70.2586V67.7964L14.5285 67.871L18.6572 67.7964V70.2586L16.4187 70.2089L18.9556 79.7596L19.2292 80.7296L19.4282 81.7493L19.6272 80.7296L19.9007 79.8342L22.562 70.2089L20.5723 70.2586V67.7964L24.2035 67.871L28.0089 67.7964V70.2586L26.044 70.2089L21.3433 85.7039H17.5131L14.9015 75.3822L14.628 74.4371L14.4041 73.094L14.1803 74.3376L13.9564 75.2081L11.1708 85.7039H7.48981L2.81395 70.2089L0.824219 70.2586Z" fill="black"/>
<path d="M41.1255 80.0581L31.1272 80.0332C31.2266 80.6964 31.3427 81.1939 31.4754 81.5255C31.608 81.8571 31.8319 82.1887 32.1469 82.5203C32.8599 83.2831 33.7884 83.6644 34.9325 83.6644C35.8942 83.6644 36.7399 83.3908 37.4694 82.8437C37.7016 82.6779 37.9088 82.4955 38.0912 82.2965C38.2736 82.0975 38.4809 81.8074 38.713 81.426L41.225 82.4457C40.8105 83.0261 40.4955 83.4323 40.2799 83.6644C40.0146 83.9629 39.6996 84.2448 39.3348 84.5101C38.058 85.5049 36.5575 86.0024 34.833 86.0024C32.8267 86.0024 31.2184 85.3889 30.0079 84.1619C28.8141 82.9183 28.2172 81.2602 28.2172 79.1875C28.2172 77.1647 28.8307 75.49 30.0577 74.1635C31.3013 72.8204 32.8765 72.1489 34.7833 72.1489C35.745 72.1489 36.6652 72.3561 37.544 72.7707C38.4228 73.1852 39.1524 73.7572 39.7327 74.4868C40.2633 75.1501 40.6281 75.8796 40.8271 76.6755C41.0261 77.4714 41.1255 78.5989 41.1255 80.0581ZM32.122 75.6558C31.6743 76.1035 31.351 76.8082 31.152 77.7699H38.0912C37.942 76.8413 37.6767 76.1532 37.2953 75.7055C36.9803 75.3407 36.5906 75.0506 36.1264 74.835C35.6787 74.6195 35.1978 74.5117 34.6838 74.5117C33.6392 74.5117 32.7853 74.893 32.122 75.6558Z" fill="black"/>
<path d="M53.8872 74.2878V70.0845L51.8229 70.1343V67.7715L54.3846 67.8461L56.9215 67.7715V83.4157L58.8864 83.366V85.7039L56.3992 85.6542L53.8872 85.7039V83.739L53.3152 84.4603C52.9172 84.9412 52.4198 85.306 51.8229 85.5547C51.2259 85.8034 50.5793 85.9277 49.8829 85.9277C48.1916 85.9277 46.8071 85.2894 45.7293 84.0126C44.6515 82.7359 44.1127 81.0861 44.1127 79.0632C44.1127 77.0735 44.6598 75.4319 45.7542 74.1386C46.8651 72.8287 48.2579 72.1738 49.9326 72.1738C50.2642 72.1738 50.6041 72.2152 50.9524 72.2981C51.3006 72.381 51.6488 72.4971 51.997 72.6463C52.3617 72.7955 52.6768 72.9862 52.9421 73.2184C53.2074 73.4505 53.5224 73.807 53.8872 74.2878ZM50.5793 74.8848C49.601 74.8848 48.8051 75.2827 48.1916 76.0786C47.5781 76.8579 47.2714 77.8776 47.2714 79.1378C47.2714 80.4311 47.5698 81.4592 48.1667 82.2219C48.7636 82.9846 49.5595 83.366 50.5544 83.366C51.5824 83.366 52.4032 82.9763 53.0167 82.197C53.6468 81.4011 53.9618 80.3565 53.9618 79.0632C53.9618 77.8196 53.6468 76.8165 53.0167 76.0537C52.4032 75.2744 51.5907 74.8848 50.5793 74.8848Z" fill="black"/>
<path d="M71.2157 74.2878V70.0845L69.1514 70.1343V67.7715L71.7131 67.8461L74.2501 67.7715V83.4157L76.2149 83.366V85.7039L73.7277 85.6542L71.2157 85.7039V83.739L70.6437 84.4603C70.2457 84.9412 69.7483 85.306 69.1514 85.5547C68.5545 85.8034 67.9078 85.9277 67.2114 85.9277C65.5201 85.9277 64.1356 85.2894 63.0578 84.0126C61.9801 82.7359 61.4412 81.0861 61.4412 79.0632C61.4412 77.0735 61.9883 75.4319 63.0827 74.1386C64.1936 72.8287 65.5864 72.1738 67.2611 72.1738C67.5928 72.1738 67.9327 72.2152 68.2809 72.2981C68.6291 72.381 68.9773 72.4971 69.3255 72.6463C69.6903 72.7955 70.0053 72.9862 70.2706 73.2184C70.5359 73.4505 70.8509 73.807 71.2157 74.2878ZM67.9078 74.8848C66.9295 74.8848 66.1336 75.2827 65.5201 76.0786C64.9066 76.8579 64.5999 77.8776 64.5999 79.1378C64.5999 80.4311 64.8983 81.4592 65.4952 82.2219C66.0922 82.9846 66.8881 83.366 67.8829 83.366C68.9109 83.366 69.7317 82.9763 70.3452 82.197C70.9753 81.4011 71.2903 80.3565 71.2903 79.0632C71.2903 77.8196 70.9753 76.8165 70.3452 76.0537C69.7317 75.2744 68.9192 74.8848 67.9078 74.8848Z" fill="black"/>
<path d="M78.4215 85.7039V83.366L80.5107 83.4157V74.7355L78.4464 74.7853V72.4473L81.0579 72.4722L83.5699 72.4473V83.4157L85.485 83.366V85.7039L82.0279 85.6293L78.4215 85.7039ZM80.2122 69.3384C80.2122 68.8078 80.3863 68.3601 80.7345 67.9953C81.0993 67.614 81.547 67.4233 82.0776 67.4233C82.6248 67.4233 83.0725 67.614 83.4207 67.9953C83.7855 68.3601 83.9679 68.8161 83.9679 69.3633C83.9679 69.8607 83.7855 70.2918 83.4207 70.6566C83.0559 71.0214 82.6082 71.2038 82.0776 71.2038C81.547 71.2038 81.0993 71.0297 80.7345 70.6815C80.3863 70.3167 80.2122 69.869 80.2122 69.3384Z" fill="black"/>
<path d="M87.6619 85.7039V83.366L89.6267 83.4157V74.7604L87.6867 74.7853V72.4473L90.2237 72.4971L92.6611 72.4473V73.9148L93.5564 73.1935C94.4518 72.5302 95.455 72.1986 96.5659 72.1986C97.7597 72.1986 98.6883 72.5468 99.3515 73.2432C99.6831 73.5914 99.907 74.006 100.023 74.4868C100.139 74.9511 100.197 75.6807 100.197 76.6755V83.4157L102.087 83.366V85.7039L98.7297 85.6293L95.2477 85.7039V83.366L97.138 83.3908V77.3222C97.138 76.7087 97.1214 76.3024 97.0882 76.1035C97.055 75.9045 96.9638 75.7138 96.8146 75.5314C96.5327 75.1501 96.0933 74.9594 95.4964 74.9594C94.5347 74.9594 93.5896 75.4817 92.6611 76.5263V83.4157L94.5513 83.366V85.7039L91.1936 85.6293L87.6619 85.7039Z" fill="black"/>
<path d="M114.458 74.3127V72.4473L116.995 72.4971L119.457 72.4473V74.7853L117.492 74.7355V85.0075C117.492 86.6822 117.078 87.9423 116.249 88.788C115.751 89.3517 115.055 89.7911 114.159 90.1062C113.264 90.4378 112.253 90.6036 111.125 90.6036C109.931 90.6036 108.812 90.4212 107.767 90.0564C107.204 89.8575 106.822 89.7082 106.623 89.6087C106.209 89.3766 105.852 89.1859 105.554 89.0367L107.096 86.9972C107.51 87.2459 107.817 87.42 108.016 87.5195C108.215 87.619 108.497 87.7268 108.862 87.8429C109.475 88.0418 110.139 88.1413 110.852 88.1413C111.996 88.1413 112.891 87.8594 113.538 87.2957C114.201 86.7485 114.533 85.9858 114.533 85.0075V83.6147C114.267 84.1287 114.002 84.5266 113.737 84.8085C113.488 85.0904 113.189 85.3391 112.841 85.5547C112.161 85.9029 111.39 86.077 110.528 86.077C108.787 86.077 107.37 85.4303 106.275 84.137C105.197 82.8437 104.659 81.1441 104.659 79.0383C104.659 77.0817 105.206 75.4568 106.3 74.1635C107.394 72.8536 108.762 72.1986 110.404 72.1986C111.117 72.1986 111.797 72.3479 112.443 72.6463C112.874 72.8453 113.214 73.0526 113.463 73.2681C113.728 73.4671 114.06 73.8153 114.458 74.3127ZM111.1 74.7604C110.089 74.7604 109.301 75.1418 108.737 75.9045C108.174 76.6672 107.892 77.7284 107.892 79.0881C107.892 80.4643 108.182 81.5669 108.762 82.396C109.343 83.225 110.122 83.6396 111.1 83.6396C112.145 83.6396 112.966 83.2333 113.563 82.4209C114.159 81.6084 114.458 80.4809 114.458 79.0383C114.458 77.7118 114.159 76.6672 113.563 75.9045C112.966 75.1418 112.145 74.7604 111.1 74.7604Z" fill="black"/>
<path d="M121.416 85.7039V83.2665L123.53 83.3162V70.2089L121.491 70.2586V67.7964L125.246 67.871L128.728 67.7964H129.077C130.188 67.7964 131.075 67.871 131.738 68.0202C132.401 68.1694 133.056 68.443 133.703 68.841C134.432 69.3218 135.004 69.9602 135.419 70.7561C135.833 71.552 136.041 72.4308 136.041 73.3925C136.041 74.3376 135.842 75.2164 135.444 76.0289C135.046 76.8247 134.49 77.4714 133.777 77.9688C133.23 78.3336 132.6 78.5989 131.887 78.7647C131.174 78.9305 130.246 79.0134 129.101 79.0134H126.913V83.3162L129.126 83.2665V85.7039L125.271 85.6542L121.416 85.7039ZM126.913 70.2586V76.6009L128.654 76.6258C131.174 76.6258 132.434 75.5646 132.434 73.4422C132.434 71.2867 131.199 70.2089 128.728 70.2089L126.913 70.2586Z" fill="black"/>
<path d="M137.87 85.7039V83.366L139.91 83.4157V70.0845L137.895 70.1343V67.7715L140.482 67.8461L142.944 67.7715V83.4157L144.884 83.366V85.7039L141.427 85.6542L137.87 85.7039Z" fill="black"/>
<path d="M147.265 85.7039V83.4655L154.03 75.7304C154.212 75.5148 154.386 75.3324 154.552 75.1832C154.718 75.0174 154.95 74.8267 155.248 74.6112L153.607 74.6609L150.15 74.6858V77.0486H147.837L147.886 74.5366L147.861 72.4473L153.308 72.4971L158.929 72.4473V74.7107L152.164 82.4457C151.932 82.7442 151.551 83.1338 151.02 83.6147C151.7 83.5318 152.214 83.4903 152.562 83.4903H156.666V81.0778H158.954C158.954 81.7079 158.946 82.2219 158.929 82.6198C158.913 83.0012 158.896 83.3743 158.88 83.739L158.904 85.7039L153.035 85.6542L147.265 85.7039Z" fill="black"/>
<defs>
<clipPath id="clip0_1445_938">
<rect width="50.1685" height="49.7641" fill="white" transform="translate(54.8105 0.607361)"/>
</clipPath>
</defs>
</svg>
