<svg width="97" height="91" viewBox="0 0 97 91" fill="none" xmlns="http://www.w3.org/2000/svg">
<path d="M48.7292 32.3449C51.0401 32.3449 52.9135 30.4715 52.9135 28.1606C52.9135 25.8497 51.0401 23.9763 48.7292 23.9763C46.4183 23.9763 44.5449 25.8497 44.5449 28.1606C44.5449 30.4715 46.4183 32.3449 48.7292 32.3449Z" fill="black"/>
<path d="M48.7156 22.4728C51.5498 22.4728 53.8473 20.1753 53.8473 17.3412C53.8473 14.5071 51.5498 12.2095 48.7156 12.2095C45.8815 12.2095 43.584 14.5071 43.584 17.3412C43.584 20.1753 45.8815 22.4728 48.7156 22.4728Z" fill="black"/>
<path d="M61.9034 17.9759C59.1402 17.9759 56.7718 20.2654 56.7718 23.1076C56.7718 24.8444 57.7192 26.3445 58.9034 27.2918C54.877 32.1077 51.798 37.9499 49.9032 44.3447V34.3183H47.7716V44.1868C45.9558 37.792 42.7979 31.8709 38.8505 27.2129C40.2715 26.2655 40.9821 24.7655 40.9821 23.0286C40.9821 20.2654 38.6926 17.897 35.8504 17.897C33.0083 17.897 30.7188 20.1865 30.7188 23.0286C30.7188 25.8708 33.0083 28.1603 35.8504 28.1603C36.0083 28.1603 36.3241 28.1603 36.482 28.1603C43.5874 36.0551 47.9295 47.8185 47.7716 59.7397H49.9032C49.7454 47.8185 54.0875 36.0551 61.1929 28.1603C61.3508 28.1603 61.6666 28.1603 61.8245 28.1603C64.5877 28.1603 66.9561 25.8708 66.9561 23.0286C66.7982 20.2654 64.6666 17.9759 61.9034 17.9759Z" fill="black"/>
<path d="M48.7252 2.81684C66.9624 2.81684 81.8047 17.6592 81.8047 35.8963C81.8047 54.1334 66.9624 69.0547 48.7252 69.0547C30.4881 69.0547 15.5669 54.1334 15.5669 35.8963C15.5669 17.6592 30.4881 2.81684 48.7252 2.81684ZM48.7252 0.606262C29.225 0.606262 13.2773 16.396 13.2773 36.0542C13.2773 55.7124 29.225 71.3442 48.7252 71.3442C68.2255 71.3442 84.1732 55.5545 84.1732 35.8963C84.1732 16.2381 68.3834 0.606262 48.7252 0.606262Z" fill="black"/>
<path d="M0.939453 82.8192H2.36056L4.15385 88.419L5.9979 82.7854H7.1314L8.99236 88.419L10.7857 82.8192H12.1729L9.55065 90.4492H8.40024L6.53927 85.0016L4.6783 90.4492H3.51097L0.939453 82.8192Z" fill="black"/>
<path d="M13.2988 82.8179H18.8986V84.0022H14.6184V85.9647H18.408V87.1489H14.6184V89.1791H18.9663V90.3802H13.2988V82.8179Z" fill="black"/>
<path d="M20.4297 82.8179H23.255C25.6404 82.8179 27.2645 84.4421 27.2645 86.5906V86.6245C27.2645 88.7392 25.6066 90.3971 23.255 90.3971H20.4297V82.8179ZM21.7493 84.0022V89.1452H23.2381C24.8283 89.1452 25.8603 88.0794 25.8603 86.5906V86.5568C25.8603 85.068 24.8283 83.9684 23.2381 83.9684H21.7493V84.0022Z" fill="black"/>
<path d="M28.7168 82.8179H31.5421C33.9275 82.8179 35.5516 84.4421 35.5516 86.5906V86.6245C35.5516 88.7392 33.8937 90.3971 31.5421 90.3971H28.7168V82.8179ZM30.0533 84.0022V89.1452H31.5421C33.1324 89.1452 34.1644 88.0794 34.1644 86.5906V86.5568C34.1644 85.068 33.1324 83.9684 31.5421 83.9684H30.0533V84.0022Z" fill="black"/>
<path d="M37.0391 82.8179H38.3756V90.3802H37.0391V82.8179Z" fill="black"/>
<path d="M40.2194 82.8179H41.4544L45.4978 88.0456V82.8179H46.7835V90.3802H45.6669L41.4882 85.0003V90.3802H40.1855V82.8179H40.2194Z" fill="black"/>
<path d="M48.2891 86.6289C48.2891 84.4803 49.9132 82.687 52.1971 82.687C53.5167 82.687 54.3118 83.0592 55.107 83.719L54.278 84.7172C53.6859 84.2265 53.1107 83.922 52.1633 83.922C50.776 83.922 49.7102 85.157 49.7102 86.612V86.6458C49.7102 88.2022 50.7422 89.3696 52.2986 89.3696C53.0261 89.3696 53.652 89.1327 54.1257 88.8113V87.3902H52.1971V86.2228H55.4115V89.4034C54.6502 90.0294 53.5844 90.6046 52.2648 90.6046C49.8455 90.5031 48.2891 88.8113 48.2891 86.6289Z" fill="black"/>
<path d="M56.1133 82.8192H57.0438L59.1923 89.1127L61.2902 82.7854H61.9838L64.0816 89.1127L66.2302 82.8192H67.1268L64.403 90.4492H63.6756L61.5947 84.308L59.4969 90.4492H58.7694L56.1133 82.8192Z" fill="black"/>
<path d="M68.4102 82.8179H69.273V90.3802H68.4102V82.8179Z" fill="black"/>
<path d="M71.2982 82.8179H74.5464C75.4769 82.8179 76.2382 83.0886 76.695 83.5792C77.0672 83.9514 77.2871 84.4759 77.2871 85.068V85.1018C77.2871 86.3538 76.4243 87.0982 75.2231 87.3181L77.5409 90.3971H76.475L74.2926 87.4534H72.1441V90.3971H71.2812V82.8179H71.2982ZM74.4787 86.6583C75.6122 86.6583 76.4412 86.0662 76.4412 85.1018V85.068C76.4412 84.1375 75.7137 83.5792 74.5126 83.5792H72.1948V86.6583H74.4787Z" fill="black"/>
<path d="M78.9648 82.8179H84.4293V83.5792H79.8277V86.1677H83.9725V86.929H79.8277V89.5851H84.497V90.3464H78.9648V82.8179Z" fill="black"/>
<path d="M86.8928 90.1448C86.693 90.1448 86.5216 90.0727 86.3789 89.9286C86.2361 89.7845 86.1658 89.6089 86.168 89.4018C86.1658 89.1992 86.2361 89.0258 86.3789 88.8817C86.5216 88.7376 86.693 88.6656 86.8928 88.6656C87.0861 88.6656 87.2541 88.7376 87.3969 88.8817C87.5419 89.0258 87.6155 89.1992 87.6177 89.4018C87.6155 89.5391 87.5803 89.6641 87.5122 89.7767C87.4463 89.8892 87.3585 89.9793 87.2487 90.0468C87.141 90.1121 87.0224 90.1448 86.8928 90.1448Z" fill="black"/>
<path d="M89.4057 90.0705V84.8831H90.5983V90.0705H89.4057ZM90.0053 84.1469C89.8164 84.1469 89.6539 84.0828 89.5177 83.9544C89.3815 83.8238 89.3134 83.6674 89.3134 83.485C89.3134 83.3004 89.3815 83.1439 89.5177 83.0156C89.6539 82.885 89.8164 82.8197 90.0053 82.8197C90.1964 82.8197 90.3589 82.885 90.4929 83.0156C90.6291 83.1439 90.6972 83.3004 90.6972 83.485C90.6972 83.6674 90.6291 83.8238 90.4929 83.9544C90.3589 84.0828 90.1964 84.1469 90.0053 84.1469Z" fill="black"/>
<path d="M93.5741 87.031V90.0705H92.3814V84.8831H93.5213V85.7646H93.5806C93.6971 85.4741 93.8827 85.2434 94.1374 85.0723C94.3944 84.9012 94.7118 84.8156 95.0896 84.8156C95.4388 84.8156 95.743 84.8922 96.0022 85.0453C96.2636 85.1983 96.4656 85.4201 96.6084 85.7106C96.7534 86.001 96.8247 86.3533 96.8226 86.7676V90.0705H95.6299V86.9567C95.6299 86.61 95.542 86.3387 95.3663 86.1428C95.1928 85.947 94.9523 85.849 94.6448 85.849C94.4361 85.849 94.2506 85.8963 94.088 85.9909C93.9277 86.0832 93.8014 86.2171 93.7091 86.3927C93.6191 86.5683 93.5741 86.7811 93.5741 87.031Z" fill="black"/>
</svg>
