<svg width="99" height="91" viewBox="0 0 99 91" fill="none" xmlns="http://www.w3.org/2000/svg">
<path d="M68.9192 26.4334C67.7545 26.1511 66.5874 25.9363 65.4619 25.6009C62.5722 24.7297 59.9297 23.3518 57.3508 21.8219C53.7051 19.6501 50.2992 17.1573 46.8664 14.6887C43.343 12.1549 39.8148 9.60906 36.2229 7.18386C33.1302 5.10615 29.8466 3.33492 26.3233 2.10181C23.5805 1.13656 20.7618 0.533272 17.8452 0.615318C12.0684 0.762519 7.45866 3.18772 4.0136 7.7051C1.16311 11.4358 -0.150805 15.6974 0.189296 20.3499C0.595461 26.0208 3.26734 30.485 7.98472 33.7186C11.131 35.9008 14.8797 37.0799 18.7261 37.097C19.1738 37.097 19.6216 37.0005 20.0693 37.0005C20.2308 37.0005 20.3801 37.1622 20.544 37.2418C20.4363 37.389 20.3678 37.6183 20.2308 37.6593C18.4422 38.2336 16.869 39.2133 15.4327 40.3934C11.5815 43.5304 9.1396 47.4831 8.48876 52.4059C7.79632 57.7269 9.39895 62.4204 12.9223 66.4431C16.0689 70.0628 20.0546 72.2588 24.8846 72.862C29.4943 73.4267 33.6343 72.1912 37.4023 69.6333C39.9787 67.8765 42.1221 65.6902 44.0208 63.2771C45.3763 61.5613 46.585 59.778 47.735 57.9416C46.7612 56.32 45.851 54.6839 44.9701 53.0623L43.4776 50.3282C42.5617 51.8658 41.5517 53.347 40.4534 54.7636C39.1126 56.4672 37.6054 57.9972 35.8021 59.2278C33.1547 61.0256 30.243 61.8968 27.0133 61.4938C23.6221 61.0787 20.8156 59.5247 18.6062 56.9909C16.1227 54.1603 14.9972 50.8639 15.4988 47.1236C15.9465 43.6776 17.6691 40.8881 20.3678 38.6897C21.3857 37.8596 22.4843 37.1767 23.7444 36.7737C23.8398 36.7447 23.8961 36.5734 23.9621 36.4793C23.8545 36.4238 23.7444 36.3031 23.6367 36.3031C23.3113 36.3031 23.0006 36.3707 22.6874 36.3707C19.9824 36.364 17.3451 35.5357 15.1342 33.9986C11.8237 31.7326 9.95192 28.5956 9.65586 24.6139C9.42342 21.3417 10.3459 18.3542 12.34 15.7384C14.7672 12.5627 18.0067 10.8591 22.0634 10.7529C24.1114 10.6974 26.0908 11.1148 28.0165 11.7978C30.4999 12.6665 32.8048 13.902 34.9726 15.3571C37.4428 17.0254 39.8732 18.7816 42.2935 20.5306L42.4475 20.6419C44.8625 22.3697 47.2603 24.1264 49.8123 25.6419C51.6156 26.7133 53.4874 27.6786 55.5084 28.2963C56.2938 28.5377 57.1208 28.6849 57.9356 28.8851C56.7147 29.6356 55.6699 30.6129 54.7059 31.6747C53.4335 33.1105 52.3203 34.6501 51.3293 36.2717C52.768 38.8321 54.1651 41.4069 55.55 43.9527C56.4994 42.2249 57.4462 40.4826 58.425 38.7645C60.1034 35.7891 62.0291 32.973 64.3217 30.4151C65.6919 28.8851 67.1697 27.5048 68.9192 26.4334Z" fill="black"/>
<path d="M78.9974 36.9957C79.4452 36.9957 79.8905 37.0898 80.353 37.0898C84.195 37.0743 87.9395 35.895 91.0796 33.7114C95.8141 30.4826 98.486 26.0183 98.8921 20.3475C99.2176 15.695 97.9159 11.431 95.0678 7.70268C91.6081 3.1853 86.9984 0.757694 81.2215 0.612906C78.305 0.53086 75.4985 1.13415 72.7582 2.0994C69.2201 3.33251 65.9366 5.10374 62.8585 7.18145C59.252 9.60664 55.7237 12.1549 52.1979 14.6887L52.1563 14.7152C54.3031 16.2564 56.5066 17.7189 58.7626 19.0999C60.5264 17.829 62.3078 16.5821 64.1064 15.3595C66.262 13.8972 68.5668 12.6641 71.0625 11.7929C72.9759 11.11 74.9554 10.6926 77.0033 10.7481C81.0576 10.8542 84.2996 12.5579 86.7268 15.7336C88.7209 18.3494 89.6433 21.3369 89.4133 24.6091C89.1271 28.5907 87.2431 31.7278 83.9326 33.9937C81.7253 35.529 79.0925 36.3572 76.3916 36.3658C76.0662 36.3658 75.7555 36.2983 75.4423 36.2983C75.3346 36.2983 75.227 36.4189 75.1169 36.4744C75.1878 36.5686 75.2392 36.7423 75.3224 36.7688C76.5947 37.1718 77.6958 37.8548 78.6989 38.6849C81.41 40.8832 83.1203 43.6728 83.5803 47.1163C84.0696 50.8567 82.9441 54.1554 80.4606 56.986C78.2512 59.5198 75.4423 61.0739 72.0535 61.4914C68.8237 61.8919 65.9243 61.0208 63.2647 59.223C61.4614 57.9923 59.9542 56.4624 58.6134 54.7587C56.607 52.2129 54.9921 49.4112 53.458 46.5686C51.8187 43.5666 50.1916 40.5357 48.5106 37.5459C47.3471 35.4463 45.9557 33.4777 44.3609 31.6747C43.3969 30.6154 42.3668 29.6356 41.1336 28.8851C41.9606 28.6824 42.7754 28.5377 43.5584 28.2963C44.547 27.9986 45.5094 27.6217 46.4358 27.1694C44.4787 25.9074 42.6369 24.5806 40.8453 23.29L40.6296 23.1347L40.1011 22.7582C38.0262 23.8996 35.8951 24.9035 33.6049 25.6009C32.4794 25.9363 31.3269 26.1511 30.1598 26.4334C31.897 27.5048 33.3749 28.8851 34.7451 30.4151C37.0377 32.9754 38.9609 35.7891 40.6418 38.7669C43.0445 43.0164 45.3616 47.3191 47.6959 51.6096C49.8931 55.6588 52.1832 59.6405 55.046 63.2723C56.9569 65.6854 59.1027 67.8717 61.6645 69.6284C65.435 72.1888 69.5847 73.4219 74.1822 72.8572C79.0121 72.2539 83.0003 70.0556 86.1567 66.4359C89.6825 62.4156 91.2851 57.7221 90.578 52.4011C89.9272 47.4807 87.4877 43.5256 83.6341 40.3885C82.1978 39.2085 80.6368 38.2288 78.8335 37.6545C78.6989 37.6134 78.6304 37.3842 78.535 37.237C78.6867 37.1574 78.8335 36.9957 78.9974 36.9957Z" fill="black"/>
<path fill-rule="evenodd" clip-rule="evenodd" d="M93.1282 89.4982C93.6124 89.4982 94.0718 89.3787 94.5129 89.139C94.9508 88.8999 95.2875 88.6098 95.5152 88.261V84.6937C95.2868 84.3377 94.9475 84.0365 94.5025 83.7935C94.0839 83.5542 93.6103 83.4279 93.1282 83.4271C92.3504 83.4271 91.7279 83.7099 91.2685 84.2802C90.8058 84.8498 90.5742 85.5788 90.5742 86.4685C90.5742 87.3609 90.8058 88.0866 91.2685 88.653C91.7279 89.2154 92.3504 89.4982 93.1282 89.4982ZM96.7518 90.3951H95.5152V89.2226C94.8353 90.1338 93.9419 90.5911 92.8313 90.5911C91.7788 90.5911 90.9253 90.2168 90.2708 89.4734C89.6195 88.7287 89.2906 87.7273 89.2906 86.4685C89.2906 85.2235 89.6195 84.2214 90.2708 83.4669C90.9253 82.7124 91.7788 82.3349 92.8313 82.3349C93.9308 82.3349 94.8242 82.7954 95.5152 83.7171V79.5338H96.7518V90.3958V90.3951ZM81.8719 88.6092C82.3496 89.2043 82.993 89.4982 83.8074 89.4982C84.6211 89.4982 85.2612 89.2043 85.735 88.6098C86.2048 88.0219 86.4436 87.2994 86.4436 86.4542C86.4436 85.6082 86.2048 84.8897 85.735 84.305C85.2612 83.7171 84.6211 83.4271 83.8074 83.4271C82.993 83.4271 82.3496 83.721 81.8719 84.3129C81.3943 84.904 81.1561 85.6193 81.1561 86.4535C81.1561 87.2994 81.3943 88.0213 81.8719 88.6092ZM86.6642 89.4003C85.9444 90.192 84.9937 90.5911 83.8074 90.5911C82.621 90.5911 81.6696 90.192 80.9492 89.4003C80.2301 88.6098 79.8719 87.6261 79.8719 86.4542C79.8719 85.2816 80.2301 84.3018 80.9499 83.5146C81.6696 82.7268 82.6204 82.3349 83.8074 82.3349C84.9937 82.3349 85.9444 82.7268 86.6642 83.514C87.3839 84.3018 87.7422 85.2816 87.7422 86.4535C87.7422 87.6261 87.3839 88.6092 86.6642 89.4003ZM72.4538 88.6098C72.9308 89.2043 73.5749 89.4982 74.3854 89.4982C75.1991 89.4982 75.8425 89.2043 76.313 88.6098C76.7867 88.0219 77.0216 87.2994 77.0216 86.4542C77.0216 85.6082 76.7867 84.8897 76.313 84.305C75.8431 83.7171 75.1991 83.4271 74.3847 83.4271C73.5749 83.4271 72.9308 83.721 72.4532 84.3129C71.9723 84.904 71.7341 85.6193 71.7341 86.4535C71.7341 87.2994 71.9723 88.0219 72.4538 88.6098ZM77.2461 89.4003C76.5263 90.192 75.571 90.5911 74.3847 90.5911C73.2023 90.5911 72.2476 90.192 71.5311 89.4003C70.8114 88.6098 70.4499 87.6261 70.4499 86.4542C70.4499 85.2816 70.8114 84.3018 71.5311 83.5146C72.2476 82.7268 73.2016 82.3349 74.3847 82.3349C75.571 82.3349 76.5263 82.7268 77.2461 83.514C77.9619 84.3018 78.3241 85.2816 78.3241 86.4535C78.3241 87.6261 77.9619 88.6092 77.2461 89.4003ZM64.4237 90.6055C62.8328 90.6055 61.4905 90.0829 60.4053 89.0338C59.3169 87.9886 58.774 86.6318 58.774 84.9733C58.774 83.3108 59.3169 81.9612 60.4053 80.9193C61.4905 79.8781 62.8328 79.3555 64.4237 79.3555C66.1562 79.3555 67.5781 80.0342 68.688 81.3909L67.5996 82.0592C67.2485 81.6019 66.7931 81.2387 66.2253 80.9663C65.6637 80.6954 65.0477 80.5565 64.4243 80.56C63.2158 80.56 62.207 80.9735 61.4005 81.8051C60.5939 82.636 60.1887 83.6923 60.1887 84.9733C60.1887 86.2536 60.5933 87.3099 61.4005 88.148C62.207 88.9835 63.2158 89.4003 64.4237 89.4003C65.0038 89.4053 65.5784 89.2866 66.1092 89.0521C66.6338 88.8163 67.0534 88.5439 67.3719 88.2283V86.0145H63.5995V84.81H68.7389V88.7326C67.6068 89.981 66.1673 90.6055 64.4237 90.6055ZM55.4317 85.7206C55.3958 85.2777 55.219 84.8753 54.8966 84.516C54.5716 84.1567 54.0979 83.9784 53.4721 83.9784C52.8783 83.9784 52.4157 84.1567 52.0868 84.5088C51.7683 84.8392 51.5662 85.2647 51.5112 85.7206H55.4317ZM53.602 90.5911C52.3726 90.5911 51.3559 90.2096 50.5566 89.4479C49.754 88.6895 49.352 87.6907 49.352 86.4535C49.352 85.2927 49.739 84.3161 50.5135 83.5211C51.2874 82.7307 52.2747 82.3349 53.4721 82.3349C54.6584 82.3349 55.617 82.7333 56.3544 83.5322C57.0885 84.3305 57.4572 85.3724 57.4572 86.6645V87.1218H51.5439C51.6091 87.6444 51.844 88.0755 52.2532 88.4243C52.6578 88.7725 53.1863 88.943 53.8336 88.943C54.1847 88.943 54.5677 88.8744 54.9762 88.7326C55.3886 88.5915 55.7182 88.4028 55.957 88.163L56.879 89.4982C56.0797 90.2246 54.9873 90.5911 53.602 90.5911ZM47.7389 90.3951H45.3846V82.7915L42.2883 90.3951H41.2683L38.172 82.7915V90.3951H35.832V79.5331H39.1091L41.778 86.0942L44.4449 79.5338H47.7402V90.3958L47.7389 90.3951ZM29.8855 89.4982C30.3703 89.4982 30.8297 89.3787 31.2714 89.139C31.7086 88.8999 32.0454 88.6098 32.2731 88.261V84.6937C32.0447 84.3377 31.7054 84.0365 31.2636 83.7935C30.8437 83.5546 30.3691 83.4284 29.8861 83.4271C29.1083 83.4271 28.4864 83.7099 28.0264 84.2802C27.5637 84.8498 27.3321 85.5788 27.3321 86.4685C27.3321 87.3609 27.5637 88.0866 28.027 88.653C28.4864 89.2154 29.1076 89.4982 29.8855 89.4982ZM33.5103 90.3951H32.2731V89.2226C31.5931 90.1338 30.6998 90.5911 29.5892 90.5911C28.5367 90.5911 27.6831 90.2168 27.0286 89.4734C26.3774 88.7287 26.0485 87.7273 26.0485 86.4685C26.0485 85.2235 26.3774 84.2214 27.0286 83.4669C27.6831 82.7124 28.5367 82.3349 29.5892 82.3349C30.6887 82.3349 31.5821 82.7954 32.2731 83.7171V79.5338H33.5103V90.3958V90.3951ZM23.2994 85.9636C23.2883 85.2927 23.0573 84.6865 22.6083 84.1496C22.1568 83.6119 21.516 83.3435 20.6807 83.3435C19.8886 83.3435 19.2667 83.6087 18.8106 84.1417C18.3551 84.6754 18.1123 85.2816 18.0797 85.9642H23.3L23.2994 85.9636ZM20.8289 90.5911C19.6425 90.5911 18.6696 90.2057 17.914 89.4408C17.1577 88.6745 16.7786 87.6803 16.7786 86.4535C16.7786 85.3038 17.1505 84.3305 17.8996 83.5322C18.6442 82.734 19.5779 82.3349 20.699 82.3349C21.871 82.3349 22.8041 82.7333 23.4873 83.5322C24.1744 84.3305 24.5183 85.3358 24.5183 86.5515V86.8605H18.0804C18.1345 87.6333 18.4197 88.2754 18.9339 88.798C19.4514 89.3206 20.1202 89.5786 20.945 89.5786C21.9323 89.5786 22.7499 89.248 23.3973 88.5876L23.9904 89.3859C23.18 90.188 22.1242 90.5911 20.8289 90.5911ZM13.2842 90.3951H11.8049L9.38137 81.6346L6.96175 90.3945H5.47853L2.34961 79.5338H3.86546L6.30334 88.5876L8.82475 79.5331H9.96017L12.4777 88.5876L14.9012 79.5331H16.4164L13.2842 90.3951Z" fill="black"/>
</svg>
